<svg width="30" height="33" viewBox="0 0 30 33" fill="none" xmlns="http://www.w3.org/2000/svg">
<path d="M21.5 12.6854L8.5 5.18877" stroke="white" stroke-width="3" stroke-linecap="round" stroke-linejoin="round"/>
<path d="M28 22.2193V10.6637C27.9995 10.1571 27.8657 9.65954 27.6122 9.22094C27.3587 8.78234 26.9943 8.41812 26.5556 8.16482L16.4444 2.38704C16.0053 2.13348 15.5071 2 15 2C14.4929 2 13.9947 2.13348 13.5556 2.38704L3.44444 8.16482C3.00571 8.41812 2.6413 8.78234 2.38778 9.22094C2.13425 9.65954 2.00052 10.1571 2 10.6637V22.2193C2.00052 22.7259 2.13425 23.2234 2.38778 23.662C2.6413 24.1006 3.00571 24.4648 3.44444 24.7181L13.5556 30.4959C13.9947 30.7495 14.4929 30.883 15 30.883C15.5071 30.883 16.0053 30.7495 16.4444 30.4959L26.5556 24.7181C26.9943 24.4648 27.3587 24.1006 27.6122 23.662C27.8657 23.2234 27.9995 22.7259 28 22.2193Z" stroke="white" stroke-width="3" stroke-linecap="round" stroke-linejoin="round"/>
<path d="M2.39038 9.16057L15.0004 16.455L27.6104 9.16057" stroke="white" stroke-width="3" stroke-linecap="round" stroke-linejoin="round"/>
<path d="M14.9998 31.0007V16.4407" stroke="white" stroke-width="3" stroke-linecap="round" stroke-linejoin="round"/>
</svg>
