<svg width="18" height="18" viewBox="0 0 18 18" fill="none" xmlns="http://www.w3.org/2000/svg">
<path d="M10.0995 9.00009L14.7722 4.32729C15.0763 4.02334 15.0763 3.53191 14.7722 3.22796C14.4682 2.92401 13.9768 2.92401 13.6729 3.22796L9.00005 7.90076L4.3274 3.22796C4.02331 2.92401 3.53201 2.92401 3.22807 3.22796C2.92398 3.53191 2.92398 4.02334 3.22807 4.32729L7.90072 9.00009L3.22807 13.6729C2.92398 13.9768 2.92398 14.4683 3.22807 14.7722C3.37954 14.9238 3.57871 15 3.77773 15C3.97676 15 4.17578 14.9238 4.3274 14.7722L9.00005 10.0994L13.6729 14.7722C13.8245 14.9238 14.0235 15 14.2225 15C14.4215 15 14.6206 14.9238 14.7722 14.7722C15.0763 14.4683 15.0763 13.9768 14.7722 13.6729L10.0995 9.00009Z" fill="#EE715B"/>
</svg>
