<svg width="124" height="84" viewBox="0 0 124 84" fill="none" xmlns="http://www.w3.org/2000/svg">
<path fill-rule="evenodd" clip-rule="evenodd" d="M4 2C4 3.10457 3.10457 4 2 4C0.895431 4 0 3.10457 0 2C0 0.895431 0.895431 0 2 0C3.10457 0 4 0.895431 4 2ZM14 2C14 3.10457 13.1046 4 12 4C10.8954 4 10 3.10457 10 2C10 0.895431 10.8954 0 12 0C13.1046 0 14 0.895431 14 2ZM22 4C23.1046 4 24 3.10457 24 2C24 0.895431 23.1046 0 22 0C20.8954 0 20 0.895431 20 2C20 3.10457 20.8954 4 22 4ZM34 2C34 3.10457 33.1046 4 32 4C30.8954 4 30 3.10457 30 2C30 0.895431 30.8954 0 32 0C33.1046 0 34 0.895431 34 2ZM42 4C43.1046 4 44 3.10457 44 2C44 0.895431 43.1046 0 42 0C40.8954 0 40 0.895431 40 2C40 3.10457 40.8954 4 42 4ZM54 2C54 3.10457 53.1046 4 52 4C50.8954 4 50 3.10457 50 2C50 0.895431 50.8954 0 52 0C53.1046 0 54 0.895431 54 2ZM62 4C63.1046 4 64 3.10457 64 2C64 0.895431 63.1046 0 62 0C60.8954 0 60 0.895431 60 2C60 3.10457 60.8954 4 62 4ZM74 2C74 3.10457 73.1046 4 72 4C70.8954 4 70 3.10457 70 2C70 0.895431 70.8954 0 72 0C73.1046 0 74 0.895431 74 2ZM82 4C83.1046 4 84 3.10457 84 2C84 0.895431 83.1046 0 82 0C80.8954 0 80 0.895431 80 2C80 3.10457 80.8954 4 82 4ZM94 2C94 3.10457 93.1046 4 92 4C90.8954 4 90 3.10457 90 2C90 0.895431 90.8954 0 92 0C93.1046 0 94 0.895431 94 2ZM102 4C103.105 4 104 3.10457 104 2C104 0.895431 103.105 0 102 0C100.895 0 100 0.895431 100 2C100 3.10457 100.895 4 102 4ZM114 2C114 3.10457 113.105 4 112 4C110.895 4 110 3.10457 110 2C110 0.895431 110.895 0 112 0C113.105 0 114 0.895431 114 2ZM122 4C123.105 4 124 3.10457 124 2C124 0.895431 123.105 0 122 0C120.895 0 120 0.895431 120 2C120 3.10457 120.895 4 122 4ZM4 12C4 13.1046 3.10457 14 2 14C0.895431 14 0 13.1046 0 12C0 10.8954 0.895431 10 2 10C3.10457 10 4 10.8954 4 12ZM14 12C14 13.1046 13.1046 14 12 14C10.8954 14 10 13.1046 10 12C10 10.8954 10.8954 10 12 10C13.1046 10 14 10.8954 14 12ZM22 14C23.1046 14 24 13.1046 24 12C24 10.8954 23.1046 10 22 10C20.8954 10 20 10.8954 20 12C20 13.1046 20.8954 14 22 14ZM34 12C34 13.1046 33.1046 14 32 14C30.8954 14 30 13.1046 30 12C30 10.8954 30.8954 10 32 10C33.1046 10 34 10.8954 34 12ZM42 14C43.1046 14 44 13.1046 44 12C44 10.8954 43.1046 10 42 10C40.8954 10 40 10.8954 40 12C40 13.1046 40.8954 14 42 14ZM54 12C54 13.1046 53.1046 14 52 14C50.8954 14 50 13.1046 50 12C50 10.8954 50.8954 10 52 10C53.1046 10 54 10.8954 54 12ZM62 14C63.1046 14 64 13.1046 64 12C64 10.8954 63.1046 10 62 10C60.8954 10 60 10.8954 60 12C60 13.1046 60.8954 14 62 14ZM74 12C74 13.1046 73.1046 14 72 14C70.8954 14 70 13.1046 70 12C70 10.8954 70.8954 10 72 10C73.1046 10 74 10.8954 74 12ZM82 14C83.1046 14 84 13.1046 84 12C84 10.8954 83.1046 10 82 10C80.8954 10 80 10.8954 80 12C80 13.1046 80.8954 14 82 14ZM94 12C94 13.1046 93.1046 14 92 14C90.8954 14 90 13.1046 90 12C90 10.8954 90.8954 10 92 10C93.1046 10 94 10.8954 94 12ZM102 14C103.105 14 104 13.1046 104 12C104 10.8954 103.105 10 102 10C100.895 10 100 10.8954 100 12C100 13.1046 100.895 14 102 14ZM114 12C114 13.1046 113.105 14 112 14C110.895 14 110 13.1046 110 12C110 10.8954 110.895 10 112 10C113.105 10 114 10.8954 114 12ZM122 14C123.105 14 124 13.1046 124 12C124 10.8954 123.105 10 122 10C120.895 10 120 10.8954 120 12C120 13.1046 120.895 14 122 14ZM2 24C3.10457 24 4 23.1046 4 22C4 20.8954 3.10457 20 2 20C0.895431 20 0 20.8954 0 22C0 23.1046 0.895431 24 2 24ZM12 24C13.1046 24 14 23.1046 14 22C14 20.8954 13.1046 20 12 20C10.8954 20 10 20.8954 10 22C10 23.1046 10.8954 24 12 24ZM24 22C24 23.1046 23.1046 24 22 24C20.8954 24 20 23.1046 20 22C20 20.8954 20.8954 20 22 20C23.1046 20 24 20.8954 24 22ZM32 24C33.1046 24 34 23.1046 34 22C34 20.8954 33.1046 20 32 20C30.8954 20 30 20.8954 30 22C30 23.1046 30.8954 24 32 24ZM44 22C44 23.1046 43.1046 24 42 24C40.8954 24 40 23.1046 40 22C40 20.8954 40.8954 20 42 20C43.1046 20 44 20.8954 44 22ZM52 24C53.1046 24 54 23.1046 54 22C54 20.8954 53.1046 20 52 20C50.8954 20 50 20.8954 50 22C50 23.1046 50.8954 24 52 24ZM64 22C64 23.1046 63.1046 24 62 24C60.8954 24 60 23.1046 60 22C60 20.8954 60.8954 20 62 20C63.1046 20 64 20.8954 64 22ZM72 24C73.1046 24 74 23.1046 74 22C74 20.8954 73.1046 20 72 20C70.8954 20 70 20.8954 70 22C70 23.1046 70.8954 24 72 24ZM84 22C84 23.1046 83.1046 24 82 24C80.8954 24 80 23.1046 80 22C80 20.8954 80.8954 20 82 20C83.1046 20 84 20.8954 84 22ZM92 24C93.1046 24 94 23.1046 94 22C94 20.8954 93.1046 20 92 20C90.8954 20 90 20.8954 90 22C90 23.1046 90.8954 24 92 24ZM104 22C104 23.1046 103.105 24 102 24C100.895 24 100 23.1046 100 22C100 20.8954 100.895 20 102 20C103.105 20 104 20.8954 104 22ZM112 24C113.105 24 114 23.1046 114 22C114 20.8954 113.105 20 112 20C110.895 20 110 20.8954 110 22C110 23.1046 110.895 24 112 24ZM124 22C124 23.1046 123.105 24 122 24C120.895 24 120 23.1046 120 22C120 20.8954 120.895 20 122 20C123.105 20 124 20.8954 124 22ZM4 32C4 33.1046 3.10457 34 2 34C0.895431 34 0 33.1046 0 32C0 30.8954 0.895431 30 2 30C3.10457 30 4 30.8954 4 32ZM14 32C14 33.1046 13.1046 34 12 34C10.8954 34 10 33.1046 10 32C10 30.8954 10.8954 30 12 30C13.1046 30 14 30.8954 14 32ZM22 34C23.1046 34 24 33.1046 24 32C24 30.8954 23.1046 30 22 30C20.8954 30 20 30.8954 20 32C20 33.1046 20.8954 34 22 34ZM34 32C34 33.1046 33.1046 34 32 34C30.8954 34 30 33.1046 30 32C30 30.8954 30.8954 30 32 30C33.1046 30 34 30.8954 34 32ZM42 34C43.1046 34 44 33.1046 44 32C44 30.8954 43.1046 30 42 30C40.8954 30 40 30.8954 40 32C40 33.1046 40.8954 34 42 34ZM54 32C54 33.1046 53.1046 34 52 34C50.8954 34 50 33.1046 50 32C50 30.8954 50.8954 30 52 30C53.1046 30 54 30.8954 54 32ZM62 34C63.1046 34 64 33.1046 64 32C64 30.8954 63.1046 30 62 30C60.8954 30 60 30.8954 60 32C60 33.1046 60.8954 34 62 34ZM74 32C74 33.1046 73.1046 34 72 34C70.8954 34 70 33.1046 70 32C70 30.8954 70.8954 30 72 30C73.1046 30 74 30.8954 74 32ZM82 34C83.1046 34 84 33.1046 84 32C84 30.8954 83.1046 30 82 30C80.8954 30 80 30.8954 80 32C80 33.1046 80.8954 34 82 34ZM94 32C94 33.1046 93.1046 34 92 34C90.8954 34 90 33.1046 90 32C90 30.8954 90.8954 30 92 30C93.1046 30 94 30.8954 94 32ZM102 34C103.105 34 104 33.1046 104 32C104 30.8954 103.105 30 102 30C100.895 30 100 30.8954 100 32C100 33.1046 100.895 34 102 34ZM114 32C114 33.1046 113.105 34 112 34C110.895 34 110 33.1046 110 32C110 30.8954 110.895 30 112 30C113.105 30 114 30.8954 114 32ZM122 34C123.105 34 124 33.1046 124 32C124 30.8954 123.105 30 122 30C120.895 30 120 30.8954 120 32C120 33.1046 120.895 34 122 34ZM2 44C3.10457 44 4 43.1046 4 42C4 40.8954 3.10457 40 2 40C0.895431 40 0 40.8954 0 42C0 43.1046 0.895431 44 2 44ZM12 44C13.1046 44 14 43.1046 14 42C14 40.8954 13.1046 40 12 40C10.8954 40 10 40.8954 10 42C10 43.1046 10.8954 44 12 44ZM24 42C24 43.1046 23.1046 44 22 44C20.8954 44 20 43.1046 20 42C20 40.8954 20.8954 40 22 40C23.1046 40 24 40.8954 24 42ZM32 44C33.1046 44 34 43.1046 34 42C34 40.8954 33.1046 40 32 40C30.8954 40 30 40.8954 30 42C30 43.1046 30.8954 44 32 44ZM44 42C44 43.1046 43.1046 44 42 44C40.8954 44 40 43.1046 40 42C40 40.8954 40.8954 40 42 40C43.1046 40 44 40.8954 44 42ZM52 44C53.1046 44 54 43.1046 54 42C54 40.8954 53.1046 40 52 40C50.8954 40 50 40.8954 50 42C50 43.1046 50.8954 44 52 44ZM64 42C64 43.1046 63.1046 44 62 44C60.8954 44 60 43.1046 60 42C60 40.8954 60.8954 40 62 40C63.1046 40 64 40.8954 64 42ZM72 44C73.1046 44 74 43.1046 74 42C74 40.8954 73.1046 40 72 40C70.8954 40 70 40.8954 70 42C70 43.1046 70.8954 44 72 44ZM84 42C84 43.1046 83.1046 44 82 44C80.8954 44 80 43.1046 80 42C80 40.8954 80.8954 40 82 40C83.1046 40 84 40.8954 84 42ZM92 44C93.1046 44 94 43.1046 94 42C94 40.8954 93.1046 40 92 40C90.8954 40 90 40.8954 90 42C90 43.1046 90.8954 44 92 44ZM104 42C104 43.1046 103.105 44 102 44C100.895 44 100 43.1046 100 42C100 40.8954 100.895 40 102 40C103.105 40 104 40.8954 104 42ZM112 44C113.105 44 114 43.1046 114 42C114 40.8954 113.105 40 112 40C110.895 40 110 40.8954 110 42C110 43.1046 110.895 44 112 44ZM124 42C124 43.1046 123.105 44 122 44C120.895 44 120 43.1046 120 42C120 40.8954 120.895 40 122 40C123.105 40 124 40.8954 124 42ZM4 52C4 53.1046 3.10457 54 2 54C0.895431 54 0 53.1046 0 52C0 50.8954 0.895431 50 2 50C3.10457 50 4 50.8954 4 52ZM14 52C14 53.1046 13.1046 54 12 54C10.8954 54 10 53.1046 10 52C10 50.8954 10.8954 50 12 50C13.1046 50 14 50.8954 14 52ZM22 54C23.1046 54 24 53.1046 24 52C24 50.8954 23.1046 50 22 50C20.8954 50 20 50.8954 20 52C20 53.1046 20.8954 54 22 54ZM34 52C34 53.1046 33.1046 54 32 54C30.8954 54 30 53.1046 30 52C30 50.8954 30.8954 50 32 50C33.1046 50 34 50.8954 34 52ZM42 54C43.1046 54 44 53.1046 44 52C44 50.8954 43.1046 50 42 50C40.8954 50 40 50.8954 40 52C40 53.1046 40.8954 54 42 54ZM54 52C54 53.1046 53.1046 54 52 54C50.8954 54 50 53.1046 50 52C50 50.8954 50.8954 50 52 50C53.1046 50 54 50.8954 54 52ZM62 54C63.1046 54 64 53.1046 64 52C64 50.8954 63.1046 50 62 50C60.8954 50 60 50.8954 60 52C60 53.1046 60.8954 54 62 54ZM74 52C74 53.1046 73.1046 54 72 54C70.8954 54 70 53.1046 70 52C70 50.8954 70.8954 50 72 50C73.1046 50 74 50.8954 74 52ZM82 54C83.1046 54 84 53.1046 84 52C84 50.8954 83.1046 50 82 50C80.8954 50 80 50.8954 80 52C80 53.1046 80.8954 54 82 54ZM94 52C94 53.1046 93.1046 54 92 54C90.8954 54 90 53.1046 90 52C90 50.8954 90.8954 50 92 50C93.1046 50 94 50.8954 94 52ZM102 54C103.105 54 104 53.1046 104 52C104 50.8954 103.105 50 102 50C100.895 50 100 50.8954 100 52C100 53.1046 100.895 54 102 54ZM114 52C114 53.1046 113.105 54 112 54C110.895 54 110 53.1046 110 52C110 50.8954 110.895 50 112 50C113.105 50 114 50.8954 114 52ZM122 54C123.105 54 124 53.1046 124 52C124 50.8954 123.105 50 122 50C120.895 50 120 50.8954 120 52C120 53.1046 120.895 54 122 54ZM2 64C3.10457 64 4 63.1046 4 62C4 60.8954 3.10457 60 2 60C0.895431 60 0 60.8954 0 62C0 63.1046 0.895431 64 2 64ZM12 64C13.1046 64 14 63.1046 14 62C14 60.8954 13.1046 60 12 60C10.8954 60 10 60.8954 10 62C10 63.1046 10.8954 64 12 64ZM24 62C24 63.1046 23.1046 64 22 64C20.8954 64 20 63.1046 20 62C20 60.8954 20.8954 60 22 60C23.1046 60 24 60.8954 24 62ZM32 64C33.1046 64 34 63.1046 34 62C34 60.8954 33.1046 60 32 60C30.8954 60 30 60.8954 30 62C30 63.1046 30.8954 64 32 64ZM44 62C44 63.1046 43.1046 64 42 64C40.8954 64 40 63.1046 40 62C40 60.8954 40.8954 60 42 60C43.1046 60 44 60.8954 44 62ZM52 64C53.1046 64 54 63.1046 54 62C54 60.8954 53.1046 60 52 60C50.8954 60 50 60.8954 50 62C50 63.1046 50.8954 64 52 64ZM64 62C64 63.1046 63.1046 64 62 64C60.8954 64 60 63.1046 60 62C60 60.8954 60.8954 60 62 60C63.1046 60 64 60.8954 64 62ZM72 64C73.1046 64 74 63.1046 74 62C74 60.8954 73.1046 60 72 60C70.8954 60 70 60.8954 70 62C70 63.1046 70.8954 64 72 64ZM84 62C84 63.1046 83.1046 64 82 64C80.8954 64 80 63.1046 80 62C80 60.8954 80.8954 60 82 60C83.1046 60 84 60.8954 84 62ZM92 64C93.1046 64 94 63.1046 94 62C94 60.8954 93.1046 60 92 60C90.8954 60 90 60.8954 90 62C90 63.1046 90.8954 64 92 64ZM104 62C104 63.1046 103.105 64 102 64C100.895 64 100 63.1046 100 62C100 60.8954 100.895 60 102 60C103.105 60 104 60.8954 104 62ZM112 64C113.105 64 114 63.1046 114 62C114 60.8954 113.105 60 112 60C110.895 60 110 60.8954 110 62C110 63.1046 110.895 64 112 64ZM124 62C124 63.1046 123.105 64 122 64C120.895 64 120 63.1046 120 62C120 60.8954 120.895 60 122 60C123.105 60 124 60.8954 124 62ZM4 72C4 73.1046 3.10457 74 2 74C0.895431 74 0 73.1046 0 72C0 70.8954 0.895431 70 2 70C3.10457 70 4 70.8954 4 72ZM14 72C14 73.1046 13.1046 74 12 74C10.8954 74 10 73.1046 10 72C10 70.8954 10.8954 70 12 70C13.1046 70 14 70.8954 14 72ZM22 74C23.1046 74 24 73.1046 24 72C24 70.8954 23.1046 70 22 70C20.8954 70 20 70.8954 20 72C20 73.1046 20.8954 74 22 74ZM34 72C34 73.1046 33.1046 74 32 74C30.8954 74 30 73.1046 30 72C30 70.8954 30.8954 70 32 70C33.1046 70 34 70.8954 34 72ZM42 74C43.1046 74 44 73.1046 44 72C44 70.8954 43.1046 70 42 70C40.8954 70 40 70.8954 40 72C40 73.1046 40.8954 74 42 74ZM54 72C54 73.1046 53.1046 74 52 74C50.8954 74 50 73.1046 50 72C50 70.8954 50.8954 70 52 70C53.1046 70 54 70.8954 54 72ZM62 74C63.1046 74 64 73.1046 64 72C64 70.8954 63.1046 70 62 70C60.8954 70 60 70.8954 60 72C60 73.1046 60.8954 74 62 74ZM74 72C74 73.1046 73.1046 74 72 74C70.8954 74 70 73.1046 70 72C70 70.8954 70.8954 70 72 70C73.1046 70 74 70.8954 74 72ZM82 74C83.1046 74 84 73.1046 84 72C84 70.8954 83.1046 70 82 70C80.8954 70 80 70.8954 80 72C80 73.1046 80.8954 74 82 74ZM94 72C94 73.1046 93.1046 74 92 74C90.8954 74 90 73.1046 90 72C90 70.8954 90.8954 70 92 70C93.1046 70 94 70.8954 94 72ZM102 74C103.105 74 104 73.1046 104 72C104 70.8954 103.105 70 102 70C100.895 70 100 70.8954 100 72C100 73.1046 100.895 74 102 74ZM114 72C114 73.1046 113.105 74 112 74C110.895 74 110 73.1046 110 72C110 70.8954 110.895 70 112 70C113.105 70 114 70.8954 114 72ZM122 74C123.105 74 124 73.1046 124 72C124 70.8954 123.105 70 122 70C120.895 70 120 70.8954 120 72C120 73.1046 120.895 74 122 74ZM2 84C3.10457 84 4 83.1046 4 82C4 80.8954 3.10457 80 2 80C0.895431 80 0 80.8954 0 82C0 83.1046 0.895431 84 2 84ZM12 84C13.1046 84 14 83.1046 14 82C14 80.8954 13.1046 80 12 80C10.8954 80 10 80.8954 10 82C10 83.1046 10.8954 84 12 84ZM24 82C24 83.1046 23.1046 84 22 84C20.8954 84 20 83.1046 20 82C20 80.8954 20.8954 80 22 80C23.1046 80 24 80.8954 24 82ZM32 84C33.1046 84 34 83.1046 34 82C34 80.8954 33.1046 80 32 80C30.8954 80 30 80.8954 30 82C30 83.1046 30.8954 84 32 84ZM44 82C44 83.1046 43.1046 84 42 84C40.8954 84 40 83.1046 40 82C40 80.8954 40.8954 80 42 80C43.1046 80 44 80.8954 44 82ZM52 84C53.1046 84 54 83.1046 54 82C54 80.8954 53.1046 80 52 80C50.8954 80 50 80.8954 50 82C50 83.1046 50.8954 84 52 84ZM64 82C64 83.1046 63.1046 84 62 84C60.8954 84 60 83.1046 60 82C60 80.8954 60.8954 80 62 80C63.1046 80 64 80.8954 64 82ZM72 84C73.1046 84 74 83.1046 74 82C74 80.8954 73.1046 80 72 80C70.8954 80 70 80.8954 70 82C70 83.1046 70.8954 84 72 84ZM84 82C84 83.1046 83.1046 84 82 84C80.8954 84 80 83.1046 80 82C80 80.8954 80.8954 80 82 80C83.1046 80 84 80.8954 84 82ZM92 84C93.1046 84 94 83.1046 94 82C94 80.8954 93.1046 80 92 80C90.8954 80 90 80.8954 90 82C90 83.1046 90.8954 84 92 84ZM104 82C104 83.1046 103.105 84 102 84C100.895 84 100 83.1046 100 82C100 80.8954 100.895 80 102 80C103.105 80 104 80.8954 104 82ZM112 84C113.105 84 114 83.1046 114 82C114 80.8954 113.105 80 112 80C110.895 80 110 80.8954 110 82C110 83.1046 110.895 84 112 84ZM124 82C124 83.1046 123.105 84 122 84C120.895 84 120 83.1046 120 82C120 80.8954 120.895 80 122 80C123.105 80 124 80.8954 124 82Z" fill="url(#paint0_linear)"/>
<defs>
<linearGradient id="paint0_linear" x1="11" y1="42" x2="90" y2="78" gradientUnits="userSpaceOnUse">
<stop stop-color="#AEDFD3"/>
<stop offset="1" stop-color="#AEDFD3" stop-opacity="0"/>
</linearGradient>
</defs>
</svg>
