<svg width="30" height="22" viewBox="0 0 30 22" fill="none" xmlns="http://www.w3.org/2000/svg">
<path fill-rule="evenodd" clip-rule="evenodd" d="M12.7943 11.3201C11.5946 12.4246 10.1749 13.0424 8.51369 13.0487C6.86952 13.0541 5.45343 12.4686 4.21693 11.357C3.33692 11.7853 2.72361 12.4246 2.54312 13.4124C2.4915 13.7071 2.46626 14.0058 2.46769 14.305C2.46565 14.9948 2.46598 15.6846 2.46631 16.3744C2.46698 17.8093 2.46766 19.2445 2.44704 20.6805C2.43362 20.8218 2.39245 20.959 2.32588 21.0842C2.25931 21.2095 2.16866 21.3204 2.05912 21.4106C1.91185 21.5237 1.52034 21.5085 1.37397 21.3854C1.16528 21.1892 1.03938 20.9207 1.02197 20.6347C0.996326 19.0688 1.00095 17.5016 1.00556 15.9348L1.0076 15.2038C1.0076 15.0592 1.0057 14.9141 1.0038 14.769C0.997651 14.299 0.991486 13.8282 1.04981 13.3657C1.20426 12.1319 1.82296 11.1558 2.85831 10.4536C2.95709 10.3863 3.05227 10.3135 3.14745 10.2408C3.17334 10.2132 3.1965 10.1831 3.2166 10.151C2.26026 8.5607 1.9819 6.85367 2.48206 5.04427C2.88166 3.62458 3.70599 2.49764 4.8931 1.63649C7.10119 0.0336213 10.3114 0.139581 12.3965 1.86637C14.4959 3.60573 15.6642 6.81146 13.7749 10.1528C14.5139 10.6108 15.1658 11.1576 15.5807 11.9541C15.9033 12.5973 16.066 13.3089 16.0548 14.0284C16.0663 16.0452 16.0612 18.062 16.0562 20.0782L16.0548 20.6276C16.0548 20.9715 15.991 21.3351 15.6292 21.4357C15.3921 21.5013 15.0311 21.4689 14.8596 21.3235C14.6881 21.178 14.5902 20.8314 14.583 20.5719C14.5615 18.4473 14.5489 16.3227 14.5785 14.1963C14.6046 12.8467 14.0317 11.9083 12.7943 11.3201ZM13.2433 6.7944C13.2576 4.15618 11.1564 1.99747 8.54692 1.98131C7.91523 1.97539 7.28861 2.09441 6.70308 2.33153C6.11756 2.56865 5.5847 2.9192 5.13514 3.363C4.68558 3.8068 4.32819 4.3351 4.08354 4.91752C3.83889 5.49994 3.7118 6.12498 3.70958 6.75669C3.69791 9.39221 5.84404 11.5743 8.46161 11.5868C11.0792 11.5994 13.2298 9.45148 13.2442 6.79799L13.2433 6.7944ZM23.1841 3.96145H18.2453C17.6688 3.96145 17.3204 3.6732 17.3267 3.21434C17.332 2.78422 17.6733 2.50674 18.2408 2.50585C21.5471 2.50225 24.8528 2.50225 28.1579 2.50585C28.6805 2.50585 28.993 2.7932 28.9921 3.2341C28.9912 3.675 28.6967 3.95696 28.1642 3.95696C27.2482 3.96092 26.3324 3.96051 25.4166 3.9601C24.6725 3.95977 23.9284 3.95944 23.1841 3.96145ZM21.9703 9.19634H21.9704H21.9706C22.3737 9.19544 22.7767 9.19454 23.1796 9.19454L23.9904 9.19365C24.449 9.19365 24.9076 9.19444 25.3662 9.19524H25.3663H25.3664C26.2833 9.19684 27.2001 9.19843 28.1166 9.19365C28.6419 9.19095 28.9122 8.9925 28.9849 8.5947C29.0765 8.09005 28.7451 7.73086 28.1606 7.73086C27.4332 7.72667 26.7054 7.72807 25.9778 7.72946H25.9777H25.9776C25.6138 7.73016 25.2502 7.73086 24.8866 7.73086C24.356 7.73086 23.8254 7.73013 23.2948 7.7294C21.6272 7.72709 19.9598 7.72479 18.2928 7.74523C17.9903 7.75476 17.7021 7.87675 17.4847 8.08735C17.3554 8.22564 17.3446 8.64409 17.4631 8.80573C17.555 8.9139 17.6677 9.00254 17.7945 9.0664C17.9213 9.13025 18.0596 9.16803 18.2012 9.17748C19.455 9.20196 20.7129 9.19915 21.9703 9.19634ZM23.9045 19.6712H19.7289C19.1758 19.6712 18.8867 19.4692 18.8157 19.0651C18.7448 18.661 18.9567 18.3216 19.3671 18.2309C19.5279 18.1993 19.6917 18.1851 19.8556 18.1887H27.8923C28.0567 18.1903 28.2207 18.2023 28.3835 18.2246C28.7661 18.274 28.9672 18.5165 28.9959 18.881C29.0247 19.2456 28.8343 19.515 28.4769 19.6209C28.3029 19.6623 28.124 19.6789 27.9453 19.6703C26.6012 19.6712 25.2571 19.6712 23.913 19.6712H23.9045ZM23.9016 12.9429H23.9007L21.7959 12.9438C21.5934 12.9435 21.3904 12.9401 21.1873 12.9367C20.6702 12.9281 20.1527 12.9194 19.6408 12.9626C19.4936 12.9837 19.3521 13.0336 19.2244 13.1096C19.0966 13.1856 18.9851 13.2861 18.8964 13.4053C18.7886 13.5625 18.8389 13.9764 18.9799 14.1237C19.1577 14.3096 19.5016 14.4245 19.771 14.4245C22.5035 14.4452 25.2441 14.4389 27.9811 14.4326L28.0006 14.4325C28.2018 14.4318 28.4462 14.4308 28.5818 14.3213C28.7704 14.1686 28.9742 13.9001 28.9751 13.6882C28.976 13.4763 28.7713 13.2123 28.5836 13.0596C28.4444 12.9474 28.1876 12.9474 27.9838 12.9474C26.6228 12.9429 25.2626 12.9429 23.9016 12.9429Z" fill="white"/>
<path d="M8.51369 13.0487L8.51533 13.5487L8.51558 13.5487L8.51369 13.0487ZM12.7943 11.3201L13.0089 10.8686L12.704 10.7236L12.4556 10.9523L12.7943 11.3201ZM4.21693 11.357L4.55122 10.9851L4.30084 10.76L3.99811 10.9074L4.21693 11.357ZM2.54312 13.4124L2.05125 13.3225L2.05062 13.3261L2.54312 13.4124ZM2.46769 14.305L2.96771 14.3065L2.96769 14.3026L2.46769 14.305ZM2.46631 16.3744L2.96631 16.3742V16.3742L2.46631 16.3744ZM2.44704 20.6805L2.9448 20.7278L2.9467 20.7078L2.94699 20.6877L2.44704 20.6805ZM2.05912 21.4106L2.36374 21.8071L2.3704 21.802L2.37688 21.7966L2.05912 21.4106ZM1.37397 21.3854L1.03145 21.7497L1.0416 21.7592L1.05227 21.7682L1.37397 21.3854ZM1.02197 20.6347L0.522038 20.6429L0.52222 20.654L0.522895 20.6651L1.02197 20.6347ZM1.00556 15.9348L1.50556 15.9363L1.50556 15.9362L1.00556 15.9348ZM1.0076 15.2038L1.5076 15.2052V15.2038H1.0076ZM1.0038 14.769L1.50376 14.7625L1.0038 14.769ZM1.04981 13.3657L1.54588 13.4283L1.54594 13.4278L1.04981 13.3657ZM2.85831 10.4536L3.13896 10.8674L3.13998 10.8667L2.85831 10.4536ZM3.14745 10.2408L3.45104 10.6381L3.48398 10.6129L3.51233 10.5826L3.14745 10.2408ZM3.2166 10.151L3.64035 10.4164L3.80324 10.1563L3.64509 9.89332L3.2166 10.151ZM2.48206 5.04427L2.00076 4.9088L2.00014 4.91105L2.48206 5.04427ZM4.8931 1.63649L5.18669 2.04121L5.18682 2.04112L4.8931 1.63649ZM12.3965 1.86637L12.7155 1.48134L12.7154 1.48128L12.3965 1.86637ZM13.7749 10.1528L13.3396 9.90669L13.1032 10.3248L13.5115 10.5778L13.7749 10.1528ZM15.5807 11.9541L16.0276 11.7299L16.0241 11.7231L15.5807 11.9541ZM16.0548 14.0284L15.5547 14.0206L15.5548 14.0313L16.0548 14.0284ZM16.0562 20.0782L15.5562 20.0769V20.0769L16.0562 20.0782ZM16.0548 20.6276L15.5548 20.6263V20.6276H16.0548ZM15.6292 21.4357L15.7624 21.9176L15.7631 21.9175L15.6292 21.4357ZM14.8596 21.3235L14.5362 21.7048L14.5362 21.7048L14.8596 21.3235ZM14.583 20.5719L14.083 20.577L14.0832 20.5857L14.583 20.5719ZM14.5785 14.1963L14.0786 14.1867L14.0786 14.1894L14.5785 14.1963ZM8.54692 1.98131L8.54223 2.48129L8.54382 2.4813L8.54692 1.98131ZM13.2433 6.7944L12.7433 6.79168L12.7429 6.85464L12.7582 6.91571L13.2433 6.7944ZM6.70308 2.33153L6.89077 2.79497L6.70308 2.33153ZM5.13514 3.363L4.78387 3.00717L4.78387 3.00717L5.13514 3.363ZM4.08354 4.91752L3.62256 4.72388H3.62256L4.08354 4.91752ZM3.70958 6.75669L4.20958 6.7589L4.20958 6.75844L3.70958 6.75669ZM13.2442 6.79799L13.7442 6.8007L13.7445 6.73775L13.7292 6.67668L13.2442 6.79799ZM23.1841 3.96145V4.46145L23.1854 4.46145L23.1841 3.96145ZM17.3267 3.21434L17.8266 3.22119L17.8266 3.2206L17.3267 3.21434ZM18.2408 2.50585L18.2402 2.00585L18.24 2.00585L18.2408 2.50585ZM28.1579 2.50585L28.1574 3.00585H28.1579V2.50585ZM28.1642 3.95696V3.45695L28.162 3.45696L28.1642 3.95696ZM25.4166 3.9601L25.4168 3.4601L25.4166 3.9601ZM21.9703 9.19634V8.69634L21.9692 8.69635L21.9703 9.19634ZM21.9706 9.19634V9.69635L21.9717 9.69634L21.9706 9.19634ZM23.1796 9.19454V9.69454H23.1801L23.1796 9.19454ZM23.9904 9.19365V8.69365H23.9899L23.9904 9.19365ZM25.3662 9.19524L25.3653 9.69524H25.3662V9.19524ZM25.3664 9.19524L25.3672 8.69524H25.3664V9.19524ZM28.1166 9.19365L28.114 8.69365H28.114L28.1166 9.19365ZM28.9849 8.5947L29.4767 8.68463L29.4769 8.68399L28.9849 8.5947ZM28.1606 7.73086L28.1577 8.23086H28.1606V7.73086ZM25.9778 7.72946V8.22946L25.9787 8.22946L25.9778 7.72946ZM25.9776 7.72946V7.22946L25.9766 7.22946L25.9776 7.72946ZM23.2948 7.7294L23.2941 8.22939L23.2948 7.7294ZM18.2928 7.74523L18.2867 7.24517L18.2771 7.24548L18.2928 7.74523ZM17.4847 8.08735L17.1368 7.72819L17.1279 7.73681L17.1195 7.74586L17.4847 8.08735ZM17.4631 8.80573L17.0599 9.10141L17.0705 9.11584L17.0821 9.12949L17.4631 8.80573ZM18.2012 9.17748L18.1679 9.67637L18.1797 9.67716L18.1915 9.67739L18.2012 9.17748ZM18.8157 19.0651L19.3082 18.9787L19.3082 18.9787L18.8157 19.0651ZM19.3671 18.2309L19.2705 17.7402L19.2592 17.7427L19.3671 18.2309ZM19.8556 18.1887L19.8446 18.6887H19.8556V18.1887ZM27.8923 18.1887L27.8973 17.6887H27.8923V18.1887ZM28.3835 18.2246L28.3157 18.72L28.3195 18.7205L28.3835 18.2246ZM28.4769 19.6209L28.5924 20.1074L28.6058 20.1042L28.619 20.1003L28.4769 19.6209ZM27.9453 19.6703L27.9692 19.1709L27.9571 19.1703L27.945 19.1703L27.9453 19.6703ZM23.9007 12.9429V12.4429H23.9005L23.9007 12.9429ZM21.7959 12.9438L21.7953 13.4438H21.7961L21.7959 12.9438ZM21.1873 12.9367L21.179 13.4367L21.1873 12.9367ZM19.6408 12.9626L19.5987 12.4644L19.5843 12.4656L19.57 12.4677L19.6408 12.9626ZM19.2244 13.1096L19.4799 13.5394L19.4799 13.5394L19.2244 13.1096ZM18.8964 13.4053L18.4953 13.1068L18.4895 13.1146L18.484 13.1226L18.8964 13.4053ZM18.9799 14.1237L19.3412 13.7781L19.3411 13.7779L18.9799 14.1237ZM19.771 14.4245L19.7748 13.9245H19.771V14.4245ZM27.9811 14.4326L27.9822 14.9326L27.9831 14.9326L27.9811 14.4326ZM28.0006 14.4325L27.9987 13.9325H27.9986L28.0006 14.4325ZM28.5818 14.3213L28.896 14.7102L28.8964 14.7099L28.5818 14.3213ZM28.9751 13.6882L29.4751 13.6903V13.6903L28.9751 13.6882ZM28.5836 13.0596L28.8991 12.6717L28.8975 12.6704L28.5836 13.0596ZM27.9838 12.9474L27.9821 13.4474H27.9838V12.9474ZM8.51558 13.5487C10.3132 13.5419 11.8503 12.8688 13.133 11.688L12.4556 10.9523C11.3389 11.9804 10.0366 12.543 8.5118 12.5487L8.51558 13.5487ZM3.88264 11.7288C5.20333 12.9162 6.73679 13.5546 8.51533 13.5487L8.51205 12.5487C7.00225 12.5537 5.70352 12.0211 4.55122 10.9851L3.88264 11.7288ZM3.03498 13.5023C3.17995 12.7089 3.66026 12.184 4.43575 11.8065L3.99811 10.9074C3.01359 11.3866 2.26728 12.1404 2.05127 13.3225L3.03498 13.5023ZM2.96769 14.3026C2.9664 14.0331 2.98913 13.7641 3.03562 13.4987L2.05062 13.3261C1.99387 13.6501 1.96612 13.9785 1.9677 14.3074L2.96769 14.3026ZM2.96631 16.3742C2.96598 15.6842 2.96565 14.9953 2.96769 14.3065L1.9677 14.3035C1.96565 14.9943 1.96598 15.6849 1.96631 16.3747L2.96631 16.3742ZM2.94699 20.6877C2.96767 19.2474 2.96698 17.8085 2.96631 16.3742L1.96631 16.3747C1.96698 17.8102 1.96765 19.2417 1.94709 20.6734L2.94699 20.6877ZM2.76741 21.3189C2.86487 21.1354 2.92515 20.9346 2.9448 20.7278L1.94928 20.6332C1.94209 20.7089 1.92002 20.7825 1.88434 20.8496L2.76741 21.3189ZM2.37688 21.7966C2.53724 21.6646 2.66996 21.5023 2.76741 21.3189L1.88434 20.8496C1.84866 20.9168 1.80007 20.9762 1.74136 21.0245L2.37688 21.7966ZM1.05227 21.7682C1.25311 21.937 1.5241 21.9797 1.69746 21.9862C1.79889 21.99 1.9077 21.9832 2.01344 21.961C2.11258 21.9401 2.24507 21.8982 2.36374 21.8071L1.7545 21.0141C1.77957 20.9948 1.79902 20.9863 1.80554 20.9837C1.8127 20.9808 1.81392 20.9811 1.8076 20.9824C1.80167 20.9836 1.79192 20.9852 1.77859 20.9862C1.76542 20.9872 1.7506 20.9875 1.73496 20.9869C1.70197 20.9857 1.67495 20.9808 1.65896 20.9763C1.65146 20.9741 1.65069 20.9733 1.65532 20.9755C1.65936 20.9774 1.67492 20.9852 1.69568 21.0027L1.05227 21.7682ZM0.522895 20.6651C0.548042 21.0782 0.729942 21.4662 1.03145 21.7497L1.7165 21.0212C1.60062 20.9122 1.53071 20.7631 1.52105 20.6044L0.522895 20.6651ZM0.505565 15.9333C0.50095 17.4993 0.496301 19.0714 0.522038 20.6429L1.5219 20.6265C1.49635 19.0663 1.50094 17.5039 1.50556 15.9363L0.505565 15.9333ZM0.507606 15.2024L0.505565 15.9334L1.50556 15.9362L1.5076 15.2052L0.507606 15.2024ZM0.503848 14.7756C0.505755 14.9212 0.507604 15.063 0.507604 15.2038H1.5076C1.5076 15.0553 1.50565 14.907 1.50376 14.7625L0.503848 14.7756ZM0.553737 13.3031C0.49034 13.8058 0.497774 14.3117 0.503848 14.7756L1.50376 14.7625C1.49753 14.2864 1.49263 13.8505 1.54588 13.4283L0.553737 13.3031ZM2.57766 10.0398C1.42834 10.8193 0.726757 11.921 0.55368 13.3036L1.54594 13.4278C1.68176 12.3428 2.21757 11.4923 3.13896 10.8674L2.57766 10.0398ZM2.84387 9.8435C2.74687 9.91762 2.66238 9.98204 2.57664 10.0405L3.13998 10.8667C3.25179 10.7905 3.35767 10.7094 3.45104 10.6381L2.84387 9.8435ZM2.79285 9.8856C2.78986 9.89037 2.78642 9.89484 2.78258 9.89894L3.51233 10.5826C3.56027 10.5315 3.60314 10.4758 3.64035 10.4164L2.79285 9.8856ZM2.00014 4.91105C1.46122 6.86064 1.76558 8.70829 2.78811 10.4087L3.64509 9.89332C2.75495 8.41311 2.50258 6.84669 2.96399 5.17748L2.00014 4.91105ZM4.5995 1.23176C3.32764 2.15439 2.4329 3.3735 2.00076 4.9088L2.96336 5.17974C3.33041 3.87567 4.08433 2.84088 5.18669 2.04121L4.5995 1.23176ZM12.7154 1.48128C10.4542 -0.391403 6.99182 -0.504833 4.59937 1.23186L5.18682 2.04112C7.21056 0.572076 10.1687 0.670566 12.0776 2.25146L12.7154 1.48128ZM14.2101 10.3989C16.2336 6.8202 14.9768 3.35483 12.7155 1.48134L12.0775 2.25139C14.015 3.85662 15.0947 6.80272 13.3396 9.90669L14.2101 10.3989ZM16.0241 11.7231C15.5507 10.8142 14.8145 10.2088 14.0382 9.72778L13.5115 10.5778C14.2133 11.0127 14.7809 11.5011 15.1372 12.1851L16.0241 11.7231ZM16.5547 14.0362C16.5672 13.2362 16.3863 12.445 16.0276 11.7299L15.1338 12.1783C15.4203 12.7496 15.5648 13.3816 15.5549 14.0206L16.5547 14.0362ZM16.5562 20.0794C16.5612 18.0636 16.5663 16.0448 16.5548 14.0256L15.5548 14.0313C15.5663 16.0457 15.5613 18.0604 15.5562 20.0769L16.5562 20.0794ZM16.5548 20.6288L16.5562 20.0794L15.5562 20.0769L15.5548 20.6263L16.5548 20.6288ZM15.7631 21.9175C16.1143 21.8198 16.3285 21.5803 16.4391 21.3156C16.5391 21.076 16.5548 20.8186 16.5548 20.6276H15.5548C15.5548 20.7805 15.5386 20.8769 15.5163 20.9302C15.5074 20.9515 15.502 20.9548 15.5054 20.9516C15.5104 20.9468 15.5114 20.9495 15.4953 20.954L15.7631 21.9175ZM14.5362 21.7048C14.7268 21.8664 14.9697 21.9308 15.1564 21.9547C15.3528 21.9798 15.5703 21.9708 15.7624 21.9176L15.4959 20.9538C15.451 20.9662 15.3694 20.9738 15.2832 20.9628C15.2427 20.9576 15.2111 20.9495 15.19 20.9418C15.1673 20.9335 15.169 20.9303 15.183 20.9422L14.5362 21.7048ZM14.0832 20.5857C14.0882 20.766 14.1235 20.9673 14.1865 21.1518C14.2454 21.3247 14.3502 21.547 14.5362 21.7048L15.183 20.9422C15.1949 20.9522 15.1903 20.9521 15.1764 20.9284C15.1634 20.9061 15.1479 20.8729 15.1329 20.8291C15.1023 20.7391 15.085 20.6372 15.0828 20.558L14.0832 20.5857ZM14.0786 14.1894C14.0489 16.3219 14.0615 18.4514 14.0831 20.577L15.083 20.5668C15.0615 18.4432 15.049 16.3235 15.0785 14.2033L14.0786 14.1894ZM12.5796 11.7717C13.131 12.0338 13.5011 12.3573 13.7349 12.7355C13.9686 13.1138 14.0902 13.5862 14.0786 14.1867L15.0785 14.206C15.0929 13.4569 14.9411 12.7852 14.5856 12.2098C14.23 11.6345 13.695 11.1947 13.0089 10.8686L12.5796 11.7717ZM8.54382 2.4813C10.8709 2.49571 12.7562 4.42299 12.7433 6.79168L13.7433 6.79712C13.7591 3.88937 11.4419 1.49923 8.55001 1.48132L8.54382 2.4813ZM6.89077 2.79497C7.4152 2.58259 7.97645 2.47598 8.54223 2.48129L8.55161 1.48133C7.85401 1.47479 7.16201 1.60623 6.5154 1.86809L6.89077 2.79497ZM5.4864 3.71882C5.88906 3.32132 6.36633 3.00735 6.89077 2.79497L6.5154 1.86809C5.86879 2.12995 5.28033 2.51707 4.78387 3.00717L5.4864 3.71882ZM4.54452 5.11116C4.76365 4.58951 5.08375 4.11632 5.4864 3.71882L4.78387 3.00717C4.28741 3.49728 3.89274 4.0807 3.62256 4.72388L4.54452 5.11116ZM4.20958 6.75844C4.21157 6.19264 4.3254 5.63281 4.54452 5.11116L3.62256 4.72388C3.35239 5.36706 3.21204 6.05731 3.20958 6.75493L4.20958 6.75844ZM8.46401 11.0868C6.12588 11.0756 4.19911 9.12174 4.20958 6.7589L3.20959 6.75447C3.1967 9.66268 5.5622 12.0729 8.45921 12.0868L8.46401 11.0868ZM12.7442 6.79529C12.7313 9.17783 10.8005 11.0981 8.46401 11.0868L8.45921 12.0868C11.3578 12.1008 13.7283 9.72513 13.7442 6.8007L12.7442 6.79529ZM12.7582 6.91571L12.7591 6.91931L13.7292 6.67668L13.7283 6.67309L12.7582 6.91571ZM18.2453 4.46145H23.1841V3.46145H18.2453V4.46145ZM16.8267 3.20749C16.8216 3.57668 16.9651 3.91348 17.251 4.14714C17.5243 4.37045 17.8798 4.46145 18.2453 4.46145V3.46145C18.0343 3.46145 17.9273 3.40833 17.8838 3.37279C17.853 3.34762 17.8254 3.31087 17.8266 3.22119L16.8267 3.20749ZM18.24 2.00585C17.8807 2.00642 17.5336 2.09421 17.2641 2.30592C16.9822 2.5273 16.8312 2.84954 16.8267 3.20808L17.8266 3.2206C17.8275 3.14901 17.8498 3.11746 17.8818 3.09235C17.9261 3.05757 18.0333 3.00618 18.2416 3.00585L18.24 2.00585ZM28.1585 2.00585C24.853 2.00225 21.5469 2.00225 18.2402 2.00585L18.2413 3.00585C21.5473 3.00225 24.8526 3.00225 28.1574 3.00585L28.1585 2.00585ZM29.4921 3.23512C29.4928 2.88959 29.3667 2.56398 29.1028 2.33033C28.8457 2.10263 28.5078 2.00585 28.1579 2.00585V3.00585C28.3306 3.00585 28.4103 3.05274 28.4398 3.07894C28.4627 3.09919 28.4923 3.1377 28.4921 3.23308L29.4921 3.23512ZM28.1642 4.45696C28.5149 4.45696 28.8538 4.36364 29.111 4.1334C29.3749 3.89719 29.4914 3.57152 29.4921 3.23512L28.4921 3.23308C28.4919 3.33757 28.4608 3.37334 28.444 3.38833C28.4206 3.4093 28.346 3.45696 28.1642 3.45696V4.45696ZM25.4164 4.4601C26.332 4.46051 27.2489 4.46092 28.1664 4.45695L28.162 3.45696C27.2474 3.46092 26.3328 3.46051 25.4168 3.4601L25.4164 4.4601ZM23.1854 4.46145C23.9288 4.45944 24.6721 4.45977 25.4164 4.4601L25.4168 3.4601C24.6729 3.45977 23.928 3.45943 23.1827 3.46145L23.1854 4.46145ZM21.9704 8.69634H21.9703V9.69634H21.9704V8.69634ZM21.9706 8.69634H21.9704V9.69634H21.9706V8.69634ZM23.1796 8.69454C22.7761 8.69454 22.3725 8.69545 21.9695 8.69635L21.9717 9.69634C22.3749 9.69544 22.7774 9.69454 23.1796 9.69454V8.69454ZM23.9899 8.69365L23.179 8.69454L23.1801 9.69454L23.991 9.69365L23.9899 8.69365ZM25.367 8.69524C24.9086 8.69444 24.4495 8.69365 23.9904 8.69365V9.69365C24.4485 9.69365 24.9067 9.69444 25.3653 9.69524L25.367 8.69524ZM25.3663 8.69524H25.3662V9.69524H25.3663V8.69524ZM25.3664 8.69524H25.3663V9.69524H25.3664V8.69524ZM28.114 8.69365C27.1996 8.69843 26.2845 8.69684 25.3672 8.69524L25.3655 9.69524C26.2822 9.69684 27.2007 9.69844 28.1192 9.69364L28.114 8.69365ZM28.4931 8.50477C28.475 8.60374 28.446 8.62413 28.4336 8.63278C28.4066 8.65173 28.3225 8.69258 28.114 8.69365L28.1191 9.69364C28.436 9.69201 28.7497 9.6323 29.0073 9.45189C29.2796 9.2612 29.4221 8.98346 29.4767 8.68463L28.4931 8.50477ZM28.1606 8.23086C28.3546 8.23086 28.4368 8.28935 28.4629 8.31694C28.4815 8.33669 28.5149 8.38418 28.4929 8.50541L29.4769 8.68399C29.5465 8.30057 29.46 7.91613 29.1897 7.63013C28.9269 7.35196 28.5511 7.23086 28.1606 7.23086V8.23086ZM25.9787 8.22946C26.7067 8.22807 27.4325 8.22667 28.1577 8.23085L28.1635 7.23087C27.4338 7.22667 26.7041 7.22807 25.9768 7.22946L25.9787 8.22946ZM25.9777 8.22946H25.9778V7.22946H25.9777V8.22946ZM25.9776 8.22946H25.9777V7.22946H25.9776V8.22946ZM24.8866 8.23086C25.2507 8.23086 25.6149 8.23016 25.9785 8.22946L25.9766 7.22946C25.6128 7.23016 25.2496 7.23086 24.8866 7.23086V8.23086ZM23.2941 8.22939C23.8246 8.23013 24.3556 8.23086 24.8866 8.23086V7.23086C24.3564 7.23086 23.8261 7.23013 23.2955 7.2294L23.2941 8.22939ZM18.299 8.24519C19.9619 8.2248 21.6259 8.22709 23.2941 8.22939L23.2955 7.2294C21.6285 7.22709 19.9576 7.22478 18.2867 7.24527L18.299 8.24519ZM17.8325 8.44651C17.9606 8.32245 18.1304 8.2506 18.3086 8.24498L18.2771 7.24548C17.8502 7.25893 17.4436 7.43104 17.1368 7.72819L17.8325 8.44651ZM17.8663 8.51004C17.8821 8.53159 17.8883 8.5469 17.8894 8.54954C17.8907 8.55286 17.8894 8.55032 17.8874 8.54072C17.8831 8.52052 17.8797 8.4889 17.8807 8.45199C17.8818 8.41476 17.8869 8.38633 17.8911 8.37152C17.8931 8.36463 17.8933 8.3662 17.8894 8.37407C17.8858 8.3812 17.8744 8.40263 17.8499 8.42885L17.1195 7.74586C17.0109 7.86194 16.9573 7.99919 16.929 8.0989C16.8985 8.20649 16.8841 8.3187 16.8812 8.42357C16.8782 8.52877 16.8863 8.64071 16.9092 8.74876C16.9309 8.85054 16.9728 8.98261 17.0599 9.10141L17.8663 8.51004ZM18.0194 8.61984C17.9524 8.58606 17.8928 8.53918 17.8441 8.48196L17.0821 9.12949C17.2173 9.28862 17.3831 9.41902 17.5696 9.51296L18.0194 8.61984ZM18.2345 8.67859C18.1596 8.67359 18.0865 8.65361 18.0194 8.61984L17.5696 9.51296C17.7561 9.60689 17.9596 9.66246 18.1679 9.67637L18.2345 8.67859ZM21.9692 8.69635C20.7109 8.69915 19.4584 8.70193 18.211 8.67758L18.1915 9.67739C19.4516 9.70199 20.715 9.69915 21.9714 9.69634L21.9692 8.69635ZM19.7289 20.1712H23.9045V19.1712H19.7289V20.1712ZM18.3232 19.1516C18.3779 19.4628 18.5301 19.7448 18.8126 19.9347C19.0775 20.1128 19.4006 20.1712 19.7289 20.1712V19.1712C19.5041 19.1712 19.4061 19.1287 19.3704 19.1047C19.3523 19.0926 19.3245 19.0715 19.3082 18.9787L18.3232 19.1516ZM19.2592 17.7427C18.9394 17.8134 18.6658 17.9903 18.4917 18.2579C18.3189 18.5237 18.2687 18.8411 18.3232 19.1516L19.3082 18.9787C19.2917 18.8851 19.3121 18.8307 19.3301 18.8031C19.3468 18.7773 19.3844 18.7391 19.475 18.7191L19.2592 17.7427ZM19.8665 17.6888C19.6666 17.6844 19.4668 17.7017 19.2706 17.7403L19.4636 18.7215C19.589 18.6968 19.7168 18.6858 19.8446 18.6886L19.8665 17.6888ZM27.8923 17.6887H19.8556V18.6887H27.8923V17.6887ZM28.4514 17.7292C28.2677 17.7041 28.0827 17.6906 27.8973 17.6887L27.8874 18.6887C28.0307 18.6901 28.1737 18.7005 28.3157 18.72L28.4514 17.7292ZM29.4944 18.8417C29.4736 18.5779 29.3862 18.3124 29.1931 18.0991C28.9973 17.8828 28.734 17.7657 28.4476 17.7287L28.3195 18.7205C28.4156 18.7329 28.4441 18.7617 28.4517 18.7701C28.4621 18.7816 28.4895 18.8195 28.4975 18.9203L29.4944 18.8417ZM28.619 20.1003C28.8864 20.0211 29.1261 19.8692 29.2903 19.6355C29.4553 19.4007 29.5165 19.1226 29.4944 18.8417L28.4975 18.9203C28.5041 19.004 28.4845 19.0429 28.4722 19.0605C28.459 19.0791 28.4248 19.1149 28.3348 19.1416L28.619 20.1003ZM27.9214 20.1698C28.1469 20.1806 28.3728 20.1596 28.5924 20.1074L28.3614 19.1345C28.233 19.165 28.101 19.1772 27.9692 19.1709L27.9214 20.1698ZM23.913 20.1712C25.2571 20.1712 26.6014 20.1712 27.9457 20.1703L27.945 19.1703C26.6011 19.1712 25.2572 19.1712 23.913 19.1712V20.1712ZM23.9045 20.1712H23.913V19.1712H23.9045V20.1712ZM23.9007 13.4429H23.9016V12.4429H23.9007V13.4429ZM21.7961 13.4438L23.9009 13.4429L23.9005 12.4429L21.7957 12.4438L21.7961 13.4438ZM21.179 13.4367C21.3814 13.44 21.5882 13.4435 21.7953 13.4438L21.7965 12.4438C21.5985 12.4435 21.3994 12.4402 21.1957 12.4368L21.179 13.4367ZM19.6828 13.4609C20.1654 13.4201 20.6575 13.4279 21.179 13.4367L21.1957 12.4368C20.683 12.4282 20.1401 12.4187 19.5987 12.4644L19.6828 13.4609ZM19.4799 13.5394C19.551 13.4971 19.6297 13.4693 19.7116 13.4576L19.57 12.4677C19.3575 12.4981 19.1532 12.5702 18.9688 12.6799L19.4799 13.5394ZM19.2975 13.7039C19.3468 13.6375 19.4088 13.5816 19.4799 13.5394L18.9688 12.6799C18.7843 12.7895 18.6234 12.9346 18.4953 13.1068L19.2975 13.7039ZM19.3411 13.7779C19.3578 13.7954 19.365 13.808 19.3658 13.8094C19.367 13.8114 19.3649 13.8082 19.3613 13.7984C19.3538 13.7779 19.3458 13.7464 19.3414 13.7095C19.337 13.6723 19.3379 13.6432 19.3399 13.6278C19.3409 13.6206 19.3414 13.6218 19.3387 13.6299C19.3364 13.6371 19.3285 13.6593 19.3087 13.6881L18.484 13.1226C18.3948 13.2527 18.3618 13.3954 18.3483 13.4986C18.3339 13.6095 18.336 13.7226 18.3483 13.8269C18.3696 14.0075 18.4363 14.2789 18.6187 14.4695L19.3411 13.7779ZM19.771 13.9245C19.7015 13.9245 19.6063 13.9085 19.5131 13.8743C19.4162 13.8388 19.3606 13.7984 19.3412 13.7781L18.6186 14.4693C18.777 14.6349 18.9822 14.7449 19.1691 14.8133C19.3596 14.8831 19.5711 14.9245 19.771 14.9245V13.9245ZM27.9799 13.9326C25.2425 13.9389 22.5044 13.9452 19.7748 13.9245L19.7672 14.9245C22.5026 14.9452 25.2456 14.9389 27.9822 14.9326L27.9799 13.9326ZM27.9986 13.9325L27.9791 13.9326L27.9831 14.9326L28.0026 14.9325L27.9986 13.9325ZM28.2677 13.9323C28.2901 13.9142 28.3049 13.9101 28.2996 13.9119C28.2942 13.9137 28.2786 13.9182 28.2485 13.9222C28.1836 13.9311 28.1057 13.9321 27.9987 13.9325L28.0025 14.9325C28.0967 14.9322 28.2417 14.9324 28.3831 14.9131C28.5174 14.8949 28.7217 14.851 28.896 14.7102L28.2677 13.9323ZM28.4751 13.6861C28.4752 13.6617 28.4805 13.6566 28.4735 13.6747C28.467 13.6914 28.4541 13.7175 28.432 13.7508C28.3865 13.8195 28.3233 13.8872 28.2672 13.9326L28.8964 14.7099C29.0289 14.6026 29.1619 14.4598 29.2657 14.303C29.3621 14.1576 29.4741 13.939 29.4751 13.6903L28.4751 13.6861ZM28.2681 13.4475C28.3261 13.4947 28.3895 13.5623 28.4343 13.6294C28.4561 13.662 28.4684 13.687 28.4743 13.7023C28.4807 13.7187 28.475 13.712 28.4751 13.6861L29.4751 13.6903C29.4762 13.4382 29.3625 13.2186 29.2659 13.0739C29.1616 12.9179 29.0288 12.7772 28.8991 12.6717L28.2681 13.4475ZM27.9838 13.4474C28.0918 13.4474 28.1738 13.4481 28.243 13.4572C28.2753 13.4614 28.2931 13.4662 28.3002 13.4685C28.3074 13.471 28.2927 13.4674 28.2697 13.4488L28.8975 12.6704C28.7196 12.5269 28.509 12.4835 28.3729 12.4656C28.2279 12.4466 28.0796 12.4474 27.9838 12.4474V13.4474ZM23.9016 13.4429C25.2628 13.4429 26.6221 13.4429 27.9821 13.4474L27.9854 12.4474C26.6234 12.4429 25.2625 12.4429 23.9016 12.4429V13.4429Z" fill="white"/>
</svg>
