<svg width="1440" height="1020" viewBox="0 0 1440 1020" fill="none" xmlns="http://www.w3.org/2000/svg">
<path d="M0 4C0 1.79086 1.79086 0 4 0H1440V1020H3.99997C1.79083 1020 0 1018.21 0 1016V4Z" fill="#44A38B"/>
<mask id="mask0" style="mask-type:alpha" maskUnits="userSpaceOnUse" x="0" y="0" width="1440" height="1020">
<path d="M0 4C0 1.79086 1.79086 0 4 0H1440V1020H3.99997C1.79083 1020 0 1018.21 0 1016V4Z" fill="#44A38B"/>
</mask>
<g mask="url(#mask0)">
<circle cx="1395" cy="58" r="242" fill="#38947D" fill-opacity="0.4"/>
<circle cy="31" r="112" fill="#E8EEFE" fill-opacity="0.4"/>
<path fill-rule="evenodd" clip-rule="evenodd" d="M5 1190C139.757 1190 249 1080.76 249 946C249 811.243 139.757 702 5 702C-129.757 702 -239 811.243 -239 946C-239 1080.76 -129.757 1190 5 1190ZM5 1098C88.9473 1098 157 1029.95 157 946C157 862.053 88.9473 794 5 794C-78.9473 794 -147 862.053 -147 946C-147 1029.95 -78.9473 1098 5 1098Z" fill="#4EBDA1" fill-opacity="0.6"/>
<circle cx="1170" cy="789" r="87" fill="#AEDFD3" fill-opacity="0.2"/>
<mask id="mask1" style="mask-type:alpha" maskUnits="userSpaceOnUse" x="33" y="47" width="125" height="84">
<path fill-rule="evenodd" clip-rule="evenodd" d="M153.968 49C153.968 50.1046 154.87 51 155.984 51C157.097 51 158 50.1046 158 49C158 47.8954 157.097 47 155.984 47C154.87 47 153.968 47.8954 153.968 49ZM143.887 49C143.887 50.1046 144.79 51 145.903 51C147.017 51 147.919 50.1046 147.919 49C147.919 47.8954 147.017 47 145.903 47C144.79 47 143.887 47.8954 143.887 49ZM135.823 51C134.709 51 133.806 50.1046 133.806 49C133.806 47.8954 134.709 47 135.823 47C136.936 47 137.839 47.8954 137.839 49C137.839 50.1046 136.936 51 135.823 51ZM123.726 49C123.726 50.1046 124.628 51 125.742 51C126.855 51 127.758 50.1046 127.758 49C127.758 47.8954 126.855 47 125.742 47C124.628 47 123.726 47.8954 123.726 49ZM115.661 51C114.548 51 113.645 50.1046 113.645 49C113.645 47.8954 114.548 47 115.661 47C116.775 47 117.677 47.8954 117.677 49C117.677 50.1046 116.775 51 115.661 51ZM103.565 49C103.565 50.1046 104.467 51 105.581 51C106.694 51 107.597 50.1046 107.597 49C107.597 47.8954 106.694 47 105.581 47C104.467 47 103.565 47.8954 103.565 49ZM95.5 51C94.3865 51 93.4839 50.1046 93.4839 49C93.4839 47.8954 94.3865 47 95.5 47C96.6135 47 97.5161 47.8954 97.5161 49C97.5161 50.1046 96.6135 51 95.5 51ZM83.4032 49C83.4032 50.1046 84.3059 51 85.4194 51C86.5328 51 87.4355 50.1046 87.4355 49C87.4355 47.8954 86.5328 47 85.4194 47C84.3059 47 83.4032 47.8954 83.4032 49ZM75.3387 51C74.2252 51 73.3226 50.1046 73.3226 49C73.3226 47.8954 74.2252 47 75.3387 47C76.4522 47 77.3548 47.8954 77.3548 49C77.3548 50.1046 76.4522 51 75.3387 51ZM63.2419 49C63.2419 50.1046 64.1446 51 65.2581 51C66.3715 51 67.2742 50.1046 67.2742 49C67.2742 47.8954 66.3715 47 65.2581 47C64.1446 47 63.2419 47.8954 63.2419 49ZM55.1774 51C54.0639 51 53.1613 50.1046 53.1613 49C53.1613 47.8954 54.0639 47 55.1774 47C56.2909 47 57.1936 47.8954 57.1936 49C57.1936 50.1046 56.2909 51 55.1774 51ZM43.0806 49C43.0806 50.1046 43.9833 51 45.0968 51C46.2103 51 47.1129 50.1046 47.1129 49C47.1129 47.8954 46.2103 47 45.0968 47C43.9833 47 43.0806 47.8954 43.0806 49ZM35.0161 51C33.9026 51 33 50.1046 33 49C33 47.8954 33.9026 47 35.0161 47C36.1296 47 37.0323 47.8954 37.0323 49C37.0323 50.1046 36.1296 51 35.0161 51ZM153.968 59C153.968 60.1046 154.87 61 155.984 61C157.097 61 158 60.1046 158 59C158 57.8954 157.097 57 155.984 57C154.87 57 153.968 57.8954 153.968 59ZM143.887 59C143.887 60.1046 144.79 61 145.903 61C147.017 61 147.919 60.1046 147.919 59C147.919 57.8954 147.017 57 145.903 57C144.79 57 143.887 57.8954 143.887 59ZM135.823 61C134.709 61 133.806 60.1046 133.806 59C133.806 57.8954 134.709 57 135.823 57C136.936 57 137.839 57.8954 137.839 59C137.839 60.1046 136.936 61 135.823 61ZM123.726 59C123.726 60.1046 124.628 61 125.742 61C126.855 61 127.758 60.1046 127.758 59C127.758 57.8954 126.855 57 125.742 57C124.628 57 123.726 57.8954 123.726 59ZM115.661 61C114.548 61 113.645 60.1046 113.645 59C113.645 57.8954 114.548 57 115.661 57C116.775 57 117.677 57.8954 117.677 59C117.677 60.1046 116.775 61 115.661 61ZM103.565 59C103.565 60.1046 104.467 61 105.581 61C106.694 61 107.597 60.1046 107.597 59C107.597 57.8954 106.694 57 105.581 57C104.467 57 103.565 57.8954 103.565 59ZM95.5 61C94.3865 61 93.4839 60.1046 93.4839 59C93.4839 57.8954 94.3865 57 95.5 57C96.6135 57 97.5161 57.8954 97.5161 59C97.5161 60.1046 96.6135 61 95.5 61ZM83.4032 59C83.4032 60.1046 84.3059 61 85.4194 61C86.5328 61 87.4355 60.1046 87.4355 59C87.4355 57.8954 86.5328 57 85.4194 57C84.3059 57 83.4032 57.8954 83.4032 59ZM75.3387 61C74.2252 61 73.3226 60.1046 73.3226 59C73.3226 57.8954 74.2252 57 75.3387 57C76.4522 57 77.3548 57.8954 77.3548 59C77.3548 60.1046 76.4522 61 75.3387 61ZM63.2419 59C63.2419 60.1046 64.1446 61 65.2581 61C66.3715 61 67.2742 60.1046 67.2742 59C67.2742 57.8954 66.3715 57 65.2581 57C64.1446 57 63.2419 57.8954 63.2419 59ZM55.1774 61C54.0639 61 53.1613 60.1046 53.1613 59C53.1613 57.8954 54.0639 57 55.1774 57C56.2909 57 57.1936 57.8954 57.1936 59C57.1936 60.1046 56.2909 61 55.1774 61ZM43.0806 59C43.0806 60.1046 43.9833 61 45.0968 61C46.2103 61 47.1129 60.1046 47.1129 59C47.1129 57.8954 46.2103 57 45.0968 57C43.9833 57 43.0806 57.8954 43.0806 59ZM35.0161 61C33.9026 61 33 60.1046 33 59C33 57.8954 33.9026 57 35.0161 57C36.1296 57 37.0323 57.8954 37.0323 59C37.0323 60.1046 36.1296 61 35.0161 61ZM155.984 71C154.87 71 153.968 70.1046 153.968 69C153.968 67.8954 154.87 67 155.984 67C157.097 67 158 67.8954 158 69C158 70.1046 157.097 71 155.984 71ZM145.903 71C144.79 71 143.887 70.1046 143.887 69C143.887 67.8954 144.79 67 145.903 67C147.017 67 147.919 67.8954 147.919 69C147.919 70.1046 147.017 71 145.903 71ZM133.806 69C133.806 70.1046 134.709 71 135.823 71C136.936 71 137.839 70.1046 137.839 69C137.839 67.8954 136.936 67 135.823 67C134.709 67 133.806 67.8954 133.806 69ZM125.742 71C124.628 71 123.726 70.1046 123.726 69C123.726 67.8954 124.628 67 125.742 67C126.855 67 127.758 67.8954 127.758 69C127.758 70.1046 126.855 71 125.742 71ZM113.645 69C113.645 70.1046 114.548 71 115.661 71C116.775 71 117.677 70.1046 117.677 69C117.677 67.8954 116.775 67 115.661 67C114.548 67 113.645 67.8954 113.645 69ZM105.581 71C104.467 71 103.565 70.1046 103.565 69C103.565 67.8954 104.467 67 105.581 67C106.694 67 107.597 67.8954 107.597 69C107.597 70.1046 106.694 71 105.581 71ZM93.4839 69C93.4839 70.1046 94.3865 71 95.5 71C96.6135 71 97.5161 70.1046 97.5161 69C97.5161 67.8954 96.6135 67 95.5 67C94.3865 67 93.4839 67.8954 93.4839 69ZM85.4194 71C84.3059 71 83.4032 70.1046 83.4032 69C83.4032 67.8954 84.3059 67 85.4194 67C86.5328 67 87.4355 67.8954 87.4355 69C87.4355 70.1046 86.5328 71 85.4194 71ZM73.3226 69C73.3226 70.1046 74.2252 71 75.3387 71C76.4522 71 77.3548 70.1046 77.3548 69C77.3548 67.8954 76.4522 67 75.3387 67C74.2252 67 73.3226 67.8954 73.3226 69ZM65.2581 71C64.1446 71 63.2419 70.1046 63.2419 69C63.2419 67.8954 64.1446 67 65.2581 67C66.3715 67 67.2742 67.8954 67.2742 69C67.2742 70.1046 66.3715 71 65.2581 71ZM53.1613 69C53.1613 70.1046 54.0639 71 55.1774 71C56.2909 71 57.1936 70.1046 57.1936 69C57.1936 67.8954 56.2909 67 55.1774 67C54.0639 67 53.1613 67.8954 53.1613 69ZM45.0968 71C43.9833 71 43.0806 70.1046 43.0806 69C43.0806 67.8954 43.9833 67 45.0968 67C46.2103 67 47.1129 67.8954 47.1129 69C47.1129 70.1046 46.2103 71 45.0968 71ZM33 69C33 70.1046 33.9026 71 35.0161 71C36.1296 71 37.0323 70.1046 37.0323 69C37.0323 67.8954 36.1296 67 35.0161 67C33.9026 67 33 67.8954 33 69ZM153.968 79C153.968 80.1046 154.87 81 155.984 81C157.097 81 158 80.1046 158 79C158 77.8954 157.097 77 155.984 77C154.87 77 153.968 77.8954 153.968 79ZM143.887 79C143.887 80.1046 144.79 81 145.903 81C147.017 81 147.919 80.1046 147.919 79C147.919 77.8954 147.017 77 145.903 77C144.79 77 143.887 77.8954 143.887 79ZM135.823 81C134.709 81 133.806 80.1046 133.806 79C133.806 77.8954 134.709 77 135.823 77C136.936 77 137.839 77.8954 137.839 79C137.839 80.1046 136.936 81 135.823 81ZM123.726 79C123.726 80.1046 124.628 81 125.742 81C126.855 81 127.758 80.1046 127.758 79C127.758 77.8954 126.855 77 125.742 77C124.628 77 123.726 77.8954 123.726 79ZM115.661 81C114.548 81 113.645 80.1046 113.645 79C113.645 77.8954 114.548 77 115.661 77C116.775 77 117.677 77.8954 117.677 79C117.677 80.1046 116.775 81 115.661 81ZM103.565 79C103.565 80.1046 104.467 81 105.581 81C106.694 81 107.597 80.1046 107.597 79C107.597 77.8954 106.694 77 105.581 77C104.467 77 103.565 77.8954 103.565 79ZM95.5 81C94.3865 81 93.4839 80.1046 93.4839 79C93.4839 77.8954 94.3865 77 95.5 77C96.6135 77 97.5161 77.8954 97.5161 79C97.5161 80.1046 96.6135 81 95.5 81ZM83.4032 79C83.4032 80.1046 84.3059 81 85.4194 81C86.5328 81 87.4355 80.1046 87.4355 79C87.4355 77.8954 86.5328 77 85.4194 77C84.3059 77 83.4032 77.8954 83.4032 79ZM75.3387 81C74.2252 81 73.3226 80.1046 73.3226 79C73.3226 77.8954 74.2252 77 75.3387 77C76.4522 77 77.3548 77.8954 77.3548 79C77.3548 80.1046 76.4522 81 75.3387 81ZM63.2419 79C63.2419 80.1046 64.1446 81 65.2581 81C66.3715 81 67.2742 80.1046 67.2742 79C67.2742 77.8954 66.3715 77 65.2581 77C64.1446 77 63.2419 77.8954 63.2419 79ZM55.1774 81C54.0639 81 53.1613 80.1046 53.1613 79C53.1613 77.8954 54.0639 77 55.1774 77C56.2909 77 57.1936 77.8954 57.1936 79C57.1936 80.1046 56.2909 81 55.1774 81ZM43.0806 79C43.0806 80.1046 43.9833 81 45.0968 81C46.2103 81 47.1129 80.1046 47.1129 79C47.1129 77.8954 46.2103 77 45.0968 77C43.9833 77 43.0806 77.8954 43.0806 79ZM35.0161 81C33.9026 81 33 80.1046 33 79C33 77.8954 33.9026 77 35.0161 77C36.1296 77 37.0323 77.8954 37.0323 79C37.0323 80.1046 36.1296 81 35.0161 81ZM155.984 91C154.87 91 153.968 90.1046 153.968 89C153.968 87.8954 154.87 87 155.984 87C157.097 87 158 87.8954 158 89C158 90.1046 157.097 91 155.984 91ZM145.903 91C144.79 91 143.887 90.1046 143.887 89C143.887 87.8954 144.79 87 145.903 87C147.017 87 147.919 87.8954 147.919 89C147.919 90.1046 147.017 91 145.903 91ZM133.806 89C133.806 90.1046 134.709 91 135.823 91C136.936 91 137.839 90.1046 137.839 89C137.839 87.8954 136.936 87 135.823 87C134.709 87 133.806 87.8954 133.806 89ZM125.742 91C124.628 91 123.726 90.1046 123.726 89C123.726 87.8954 124.628 87 125.742 87C126.855 87 127.758 87.8954 127.758 89C127.758 90.1046 126.855 91 125.742 91ZM113.645 89C113.645 90.1046 114.548 91 115.661 91C116.775 91 117.677 90.1046 117.677 89C117.677 87.8954 116.775 87 115.661 87C114.548 87 113.645 87.8954 113.645 89ZM105.581 91C104.467 91 103.565 90.1046 103.565 89C103.565 87.8954 104.467 87 105.581 87C106.694 87 107.597 87.8954 107.597 89C107.597 90.1046 106.694 91 105.581 91ZM93.4839 89C93.4839 90.1046 94.3865 91 95.5 91C96.6135 91 97.5161 90.1046 97.5161 89C97.5161 87.8954 96.6135 87 95.5 87C94.3865 87 93.4839 87.8954 93.4839 89ZM85.4194 91C84.3059 91 83.4032 90.1046 83.4032 89C83.4032 87.8954 84.3059 87 85.4194 87C86.5328 87 87.4355 87.8954 87.4355 89C87.4355 90.1046 86.5328 91 85.4194 91ZM73.3226 89C73.3226 90.1046 74.2252 91 75.3387 91C76.4522 91 77.3548 90.1046 77.3548 89C77.3548 87.8954 76.4522 87 75.3387 87C74.2252 87 73.3226 87.8954 73.3226 89ZM65.2581 91C64.1446 91 63.2419 90.1046 63.2419 89C63.2419 87.8954 64.1446 87 65.2581 87C66.3715 87 67.2742 87.8954 67.2742 89C67.2742 90.1046 66.3715 91 65.2581 91ZM53.1613 89C53.1613 90.1046 54.0639 91 55.1774 91C56.2909 91 57.1936 90.1046 57.1936 89C57.1936 87.8954 56.2909 87 55.1774 87C54.0639 87 53.1613 87.8954 53.1613 89ZM45.0968 91C43.9833 91 43.0806 90.1046 43.0806 89C43.0806 87.8954 43.9833 87 45.0968 87C46.2103 87 47.1129 87.8954 47.1129 89C47.1129 90.1046 46.2103 91 45.0968 91ZM33 89C33 90.1046 33.9026 91 35.0161 91C36.1296 91 37.0323 90.1046 37.0323 89C37.0323 87.8954 36.1296 87 35.0161 87C33.9026 87 33 87.8954 33 89ZM153.968 99C153.968 100.105 154.87 101 155.984 101C157.097 101 158 100.105 158 99C158 97.8954 157.097 97 155.984 97C154.87 97 153.968 97.8954 153.968 99ZM143.887 99C143.887 100.105 144.79 101 145.903 101C147.017 101 147.919 100.105 147.919 99C147.919 97.8954 147.017 97 145.903 97C144.79 97 143.887 97.8954 143.887 99ZM135.823 101C134.709 101 133.806 100.105 133.806 99C133.806 97.8954 134.709 97 135.823 97C136.936 97 137.839 97.8954 137.839 99C137.839 100.105 136.936 101 135.823 101ZM123.726 99C123.726 100.105 124.628 101 125.742 101C126.855 101 127.758 100.105 127.758 99C127.758 97.8954 126.855 97 125.742 97C124.628 97 123.726 97.8954 123.726 99ZM115.661 101C114.548 101 113.645 100.105 113.645 99C113.645 97.8954 114.548 97 115.661 97C116.775 97 117.677 97.8954 117.677 99C117.677 100.105 116.775 101 115.661 101ZM103.565 99C103.565 100.105 104.467 101 105.581 101C106.694 101 107.597 100.105 107.597 99C107.597 97.8954 106.694 97 105.581 97C104.467 97 103.565 97.8954 103.565 99ZM95.5 101C94.3865 101 93.4839 100.105 93.4839 99C93.4839 97.8954 94.3865 97 95.5 97C96.6135 97 97.5161 97.8954 97.5161 99C97.5161 100.105 96.6135 101 95.5 101ZM83.4032 99C83.4032 100.105 84.3059 101 85.4194 101C86.5328 101 87.4355 100.105 87.4355 99C87.4355 97.8954 86.5328 97 85.4194 97C84.3059 97 83.4032 97.8954 83.4032 99ZM75.3387 101C74.2252 101 73.3226 100.105 73.3226 99C73.3226 97.8954 74.2252 97 75.3387 97C76.4522 97 77.3548 97.8954 77.3548 99C77.3548 100.105 76.4522 101 75.3387 101ZM63.2419 99C63.2419 100.105 64.1446 101 65.2581 101C66.3715 101 67.2742 100.105 67.2742 99C67.2742 97.8954 66.3715 97 65.2581 97C64.1446 97 63.2419 97.8954 63.2419 99ZM55.1774 101C54.0639 101 53.1613 100.105 53.1613 99C53.1613 97.8954 54.0639 97 55.1774 97C56.2909 97 57.1936 97.8954 57.1936 99C57.1936 100.105 56.2909 101 55.1774 101ZM43.0806 99C43.0806 100.105 43.9833 101 45.0968 101C46.2103 101 47.1129 100.105 47.1129 99C47.1129 97.8954 46.2103 97 45.0968 97C43.9833 97 43.0806 97.8954 43.0806 99ZM35.0161 101C33.9026 101 33 100.105 33 99C33 97.8954 33.9026 97 35.0161 97C36.1296 97 37.0323 97.8954 37.0323 99C37.0323 100.105 36.1296 101 35.0161 101ZM155.984 111C154.87 111 153.968 110.105 153.968 109C153.968 107.895 154.87 107 155.984 107C157.097 107 158 107.895 158 109C158 110.105 157.097 111 155.984 111ZM145.903 111C144.79 111 143.887 110.105 143.887 109C143.887 107.895 144.79 107 145.903 107C147.017 107 147.919 107.895 147.919 109C147.919 110.105 147.017 111 145.903 111ZM133.806 109C133.806 110.105 134.709 111 135.823 111C136.936 111 137.839 110.105 137.839 109C137.839 107.895 136.936 107 135.823 107C134.709 107 133.806 107.895 133.806 109ZM125.742 111C124.628 111 123.726 110.105 123.726 109C123.726 107.895 124.628 107 125.742 107C126.855 107 127.758 107.895 127.758 109C127.758 110.105 126.855 111 125.742 111ZM113.645 109C113.645 110.105 114.548 111 115.661 111C116.775 111 117.677 110.105 117.677 109C117.677 107.895 116.775 107 115.661 107C114.548 107 113.645 107.895 113.645 109ZM105.581 111C104.467 111 103.565 110.105 103.565 109C103.565 107.895 104.467 107 105.581 107C106.694 107 107.597 107.895 107.597 109C107.597 110.105 106.694 111 105.581 111ZM93.4839 109C93.4839 110.105 94.3865 111 95.5 111C96.6135 111 97.5161 110.105 97.5161 109C97.5161 107.895 96.6135 107 95.5 107C94.3865 107 93.4839 107.895 93.4839 109ZM85.4194 111C84.3059 111 83.4032 110.105 83.4032 109C83.4032 107.895 84.3059 107 85.4194 107C86.5328 107 87.4355 107.895 87.4355 109C87.4355 110.105 86.5328 111 85.4194 111ZM73.3226 109C73.3226 110.105 74.2252 111 75.3387 111C76.4522 111 77.3548 110.105 77.3548 109C77.3548 107.895 76.4522 107 75.3387 107C74.2252 107 73.3226 107.895 73.3226 109ZM65.2581 111C64.1446 111 63.2419 110.105 63.2419 109C63.2419 107.895 64.1446 107 65.2581 107C66.3715 107 67.2742 107.895 67.2742 109C67.2742 110.105 66.3715 111 65.2581 111ZM53.1613 109C53.1613 110.105 54.0639 111 55.1774 111C56.2909 111 57.1936 110.105 57.1936 109C57.1936 107.895 56.2909 107 55.1774 107C54.0639 107 53.1613 107.895 53.1613 109ZM45.0968 111C43.9833 111 43.0806 110.105 43.0806 109C43.0806 107.895 43.9833 107 45.0968 107C46.2103 107 47.1129 107.895 47.1129 109C47.1129 110.105 46.2103 111 45.0968 111ZM33 109C33 110.105 33.9026 111 35.0161 111C36.1296 111 37.0323 110.105 37.0323 109C37.0323 107.895 36.1296 107 35.0161 107C33.9026 107 33 107.895 33 109ZM153.968 119C153.968 120.105 154.87 121 155.984 121C157.097 121 158 120.105 158 119C158 117.895 157.097 117 155.984 117C154.87 117 153.968 117.895 153.968 119ZM143.887 119C143.887 120.105 144.79 121 145.903 121C147.017 121 147.919 120.105 147.919 119C147.919 117.895 147.017 117 145.903 117C144.79 117 143.887 117.895 143.887 119ZM135.823 121C134.709 121 133.806 120.105 133.806 119C133.806 117.895 134.709 117 135.823 117C136.936 117 137.839 117.895 137.839 119C137.839 120.105 136.936 121 135.823 121ZM123.726 119C123.726 120.105 124.628 121 125.742 121C126.855 121 127.758 120.105 127.758 119C127.758 117.895 126.855 117 125.742 117C124.628 117 123.726 117.895 123.726 119ZM115.661 121C114.548 121 113.645 120.105 113.645 119C113.645 117.895 114.548 117 115.661 117C116.775 117 117.677 117.895 117.677 119C117.677 120.105 116.775 121 115.661 121ZM103.565 119C103.565 120.105 104.467 121 105.581 121C106.694 121 107.597 120.105 107.597 119C107.597 117.895 106.694 117 105.581 117C104.467 117 103.565 117.895 103.565 119ZM95.5 121C94.3865 121 93.4839 120.105 93.4839 119C93.4839 117.895 94.3865 117 95.5 117C96.6135 117 97.5161 117.895 97.5161 119C97.5161 120.105 96.6135 121 95.5 121ZM83.4032 119C83.4032 120.105 84.3059 121 85.4194 121C86.5328 121 87.4355 120.105 87.4355 119C87.4355 117.895 86.5328 117 85.4194 117C84.3059 117 83.4032 117.895 83.4032 119ZM75.3387 121C74.2252 121 73.3226 120.105 73.3226 119C73.3226 117.895 74.2252 117 75.3387 117C76.4522 117 77.3548 117.895 77.3548 119C77.3548 120.105 76.4522 121 75.3387 121ZM63.2419 119C63.2419 120.105 64.1446 121 65.2581 121C66.3715 121 67.2742 120.105 67.2742 119C67.2742 117.895 66.3715 117 65.2581 117C64.1446 117 63.2419 117.895 63.2419 119ZM55.1774 121C54.0639 121 53.1613 120.105 53.1613 119C53.1613 117.895 54.0639 117 55.1774 117C56.2909 117 57.1936 117.895 57.1936 119C57.1936 120.105 56.2909 121 55.1774 121ZM43.0806 119C43.0806 120.105 43.9833 121 45.0968 121C46.2103 121 47.1129 120.105 47.1129 119C47.1129 117.895 46.2103 117 45.0968 117C43.9833 117 43.0806 117.895 43.0806 119ZM35.0161 121C33.9026 121 33 120.105 33 119C33 117.895 33.9026 117 35.0161 117C36.1296 117 37.0323 117.895 37.0323 119C37.0323 120.105 36.1296 121 35.0161 121ZM155.984 131C154.87 131 153.968 130.105 153.968 129C153.968 127.895 154.87 127 155.984 127C157.097 127 158 127.895 158 129C158 130.105 157.097 131 155.984 131ZM145.903 131C144.79 131 143.887 130.105 143.887 129C143.887 127.895 144.79 127 145.903 127C147.017 127 147.919 127.895 147.919 129C147.919 130.105 147.017 131 145.903 131ZM133.806 129C133.806 130.105 134.709 131 135.823 131C136.936 131 137.839 130.105 137.839 129C137.839 127.895 136.936 127 135.823 127C134.709 127 133.806 127.895 133.806 129ZM125.742 131C124.628 131 123.726 130.105 123.726 129C123.726 127.895 124.628 127 125.742 127C126.855 127 127.758 127.895 127.758 129C127.758 130.105 126.855 131 125.742 131ZM113.645 129C113.645 130.105 114.548 131 115.661 131C116.775 131 117.677 130.105 117.677 129C117.677 127.895 116.775 127 115.661 127C114.548 127 113.645 127.895 113.645 129ZM105.581 131C104.467 131 103.565 130.105 103.565 129C103.565 127.895 104.467 127 105.581 127C106.694 127 107.597 127.895 107.597 129C107.597 130.105 106.694 131 105.581 131ZM93.4839 129C93.4839 130.105 94.3865 131 95.5 131C96.6135 131 97.5161 130.105 97.5161 129C97.5161 127.895 96.6135 127 95.5 127C94.3865 127 93.4839 127.895 93.4839 129ZM85.4194 131C84.3059 131 83.4032 130.105 83.4032 129C83.4032 127.895 84.3059 127 85.4194 127C86.5328 127 87.4355 127.895 87.4355 129C87.4355 130.105 86.5328 131 85.4194 131ZM73.3226 129C73.3226 130.105 74.2252 131 75.3387 131C76.4522 131 77.3548 130.105 77.3548 129C77.3548 127.895 76.4522 127 75.3387 127C74.2252 127 73.3226 127.895 73.3226 129ZM65.2581 131C64.1446 131 63.2419 130.105 63.2419 129C63.2419 127.895 64.1446 127 65.2581 127C66.3715 127 67.2742 127.895 67.2742 129C67.2742 130.105 66.3715 131 65.2581 131ZM53.1613 129C53.1613 130.105 54.0639 131 55.1774 131C56.2909 131 57.1936 130.105 57.1936 129C57.1936 127.895 56.2909 127 55.1774 127C54.0639 127 53.1613 127.895 53.1613 129ZM45.0968 131C43.9833 131 43.0806 130.105 43.0806 129C43.0806 127.895 43.9833 127 45.0968 127C46.2103 127 47.1129 127.895 47.1129 129C47.1129 130.105 46.2103 131 45.0968 131ZM33 129C33 130.105 33.9026 131 35.0161 131C36.1296 131 37.0323 130.105 37.0323 129C37.0323 127.895 36.1296 127 35.0161 127C33.9026 127 33 127.895 33 129Z" fill="url(#paint0_linear)"/>
</mask>
<g mask="url(#mask1)">
<circle cx="110.5" cy="92.5" r="43.5" fill="#C4C4C4"/>
</g>
</g>
<defs>
<linearGradient id="paint0_linear" x1="146.911" y1="89" x2="67.4953" y2="125.481" gradientUnits="userSpaceOnUse">
<stop stop-color="#C4C4C4"/>
<stop offset="1" stop-color="#C4C4C4" stop-opacity="0"/>
</linearGradient>
</defs>
</svg>
