<svg width="29" height="38" viewBox="0 0 29 38" fill="none" xmlns="http://www.w3.org/2000/svg">
<path fill-rule="evenodd" clip-rule="evenodd" d="M0.010703 15.7284C0.0113453 16.7948 0.0119874 17.8611 0.0119874 18.9275C0.0119874 20.1021 0.0149396 21.2767 0.0178923 22.4515C0.0248266 25.2106 0.0317642 27.971 0.000474348 30.7356C-0.0441389 34.9954 3.06584 37.7298 6.10673 37.8737C9.86144 38.045 13.6377 38.0392 17.3939 37.8737C20.714 37.7298 23.5188 34.4198 23.3879 31.1098C23.3604 30.6857 23.2104 30.2788 22.9561 29.9383C22.5028 29.3439 21.8221 29.2475 21.1299 29.449C20.798 29.5276 20.5021 29.7152 20.2894 29.9818C20.0768 30.2485 19.9597 30.5788 19.957 30.9198C19.8562 32.9821 18.4099 34.5738 15.8756 34.4946C13.0462 34.3996 10.2111 34.3953 7.38468 34.4946C5.33535 34.5651 3.49182 32.9936 3.51772 30.6521C3.59928 22.8808 3.59928 15.1094 3.51772 7.33811C3.49326 5.10025 5.13244 3.38768 7.41778 3.46971C10.2687 3.56469 13.1268 3.55174 15.9778 3.46971C18.0559 3.40926 19.78 4.71456 19.9541 6.94522C20.0376 8.0548 20.7931 8.67075 21.8163 8.59159C22.8007 8.51676 23.4138 7.81014 23.4138 6.73655C23.4282 3.38336 20.6334 0.205745 17.2859 0.0733447C14.7182 -0.0267244 12.149 -0.0029373 9.58039 0.0208447C8.45497 0.0312647 7.32965 0.0416837 6.20459 0.0416837C5.98934 0.0488263 5.77553 0.079715 5.56705 0.133788C2.10161 0.93107 0.0350136 3.54166 0.017744 7.19419C0.00727732 10.0401 0.0089903 12.8844 0.010703 15.7284ZM11.8948 20.7753H22.022C21.7037 21.0998 21.4003 21.4083 21.1064 21.7071C20.6443 22.1769 20.2055 22.623 19.7683 23.0707C18.9207 23.94 18.8674 24.9647 19.6403 25.7375C20.3699 26.4671 21.3917 26.4153 22.2552 25.5792C22.7909 25.0638 23.3169 24.5392 23.8432 24.0143C24.0972 23.761 24.3514 23.5075 24.6067 23.255C24.9047 22.9604 25.2042 22.6673 25.5036 22.3743C26.1976 21.695 26.8914 21.0158 27.567 20.3191C28.3082 19.5535 28.3801 18.5677 27.6994 17.8726C25.8122 15.9345 23.8948 14.0215 21.9472 12.1333C21.1168 11.3245 19.7065 11.7001 19.2546 12.7637C18.9322 13.525 19.0776 14.187 19.7352 14.849C20.2188 15.3353 20.706 15.8174 21.2339 16.3399C21.5214 16.6244 21.821 16.9209 22.1386 17.2365H21.124H12.3539C12.043 17.228 11.732 17.2463 11.4242 17.2912C11.1325 17.3366 10.8573 17.4561 10.6249 17.6382C10.3925 17.8203 10.2107 18.059 10.0968 18.3314C9.98291 18.6037 9.94075 18.9008 9.97436 19.1941C10.008 19.4874 10.1162 19.7673 10.2888 20.0068C10.6759 20.5738 11.2242 20.7753 11.8948 20.7753Z" fill="white"/>
</svg>
