<svg width="29" height="34" viewBox="0 0 29 34" fill="none" xmlns="http://www.w3.org/2000/svg">
<path d="M27.1687 14.4631C27.1687 24.1566 14.7055 32.4654 14.7055 32.4654C14.7055 32.4654 2.24243 24.1566 2.24243 14.4631C2.24243 11.1577 3.55551 7.98765 5.89279 5.65036C8.23008 3.31307 11.4001 2 14.7055 2C18.011 2 21.181 3.31307 23.5183 5.65036C25.8556 7.98765 27.1687 11.1577 27.1687 14.4631Z" stroke="white" stroke-width="3" stroke-linecap="round" stroke-linejoin="round"/>
<path d="M14.7056 18.6185C17 18.6185 18.86 16.7585 18.86 14.4641C18.86 12.1697 17 10.3098 14.7056 10.3098C12.4112 10.3098 10.5513 12.1697 10.5513 14.4641C10.5513 16.7585 12.4112 18.6185 14.7056 18.6185Z" stroke="white" stroke-width="3" stroke-linecap="round" stroke-linejoin="round"/>
</svg>
