<svg width="125" height="84" viewBox="0 0 125 84" fill="none" xmlns="http://www.w3.org/2000/svg">
<mask id="mask0" style="mask-type:alpha" maskUnits="userSpaceOnUse" x="0" y="0" width="125" height="84">
<path fill-rule="evenodd" clip-rule="evenodd" d="M120.968 2C120.968 3.10457 121.87 4 122.984 4C124.097 4 125 3.10457 125 2C125 0.895431 124.097 0 122.984 0C121.87 0 120.968 0.895431 120.968 2ZM110.887 2C110.887 3.10457 111.79 4 112.903 4C114.017 4 114.919 3.10457 114.919 2C114.919 0.895431 114.017 0 112.903 0C111.79 0 110.887 0.895431 110.887 2ZM102.823 4C101.709 4 100.806 3.10457 100.806 2C100.806 0.895431 101.709 0 102.823 0C103.936 0 104.839 0.895431 104.839 2C104.839 3.10457 103.936 4 102.823 4ZM90.7258 2C90.7258 3.10457 91.6285 4 92.7419 4C93.8554 4 94.7581 3.10457 94.7581 2C94.7581 0.895431 93.8554 0 92.7419 0C91.6285 0 90.7258 0.895431 90.7258 2ZM82.6613 4C81.5478 4 80.6452 3.10457 80.6452 2C80.6452 0.895431 81.5478 0 82.6613 0C83.7748 0 84.6774 0.895431 84.6774 2C84.6774 3.10457 83.7748 4 82.6613 4ZM70.5645 2C70.5645 3.10457 71.4672 4 72.5806 4C73.6941 4 74.5968 3.10457 74.5968 2C74.5968 0.895431 73.6941 0 72.5806 0C71.4672 0 70.5645 0.895431 70.5645 2ZM62.5 4C61.3865 4 60.4839 3.10457 60.4839 2C60.4839 0.895431 61.3865 0 62.5 0C63.6135 0 64.5161 0.895431 64.5161 2C64.5161 3.10457 63.6135 4 62.5 4ZM50.4032 2C50.4032 3.10457 51.3059 4 52.4194 4C53.5328 4 54.4355 3.10457 54.4355 2C54.4355 0.895431 53.5328 0 52.4194 0C51.3059 0 50.4032 0.895431 50.4032 2ZM42.3387 4C41.2252 4 40.3226 3.10457 40.3226 2C40.3226 0.895431 41.2252 0 42.3387 0C43.4522 0 44.3548 0.895431 44.3548 2C44.3548 3.10457 43.4522 4 42.3387 4ZM30.2419 2C30.2419 3.10457 31.1446 4 32.2581 4C33.3715 4 34.2742 3.10457 34.2742 2C34.2742 0.895431 33.3715 0 32.2581 0C31.1446 0 30.2419 0.895431 30.2419 2ZM22.1774 4C21.0639 4 20.1613 3.10457 20.1613 2C20.1613 0.895431 21.0639 0 22.1774 0C23.2909 0 24.1936 0.895431 24.1936 2C24.1936 3.10457 23.2909 4 22.1774 4ZM10.0806 2C10.0806 3.10457 10.9833 4 12.0968 4C13.2103 4 14.1129 3.10457 14.1129 2C14.1129 0.895431 13.2103 0 12.0968 0C10.9833 0 10.0806 0.895431 10.0806 2ZM2.01613 4C0.902649 4 0 3.10457 0 2C0 0.895431 0.902649 0 2.01613 0C3.12961 0 4.03226 0.895431 4.03226 2C4.03226 3.10457 3.12961 4 2.01613 4ZM120.968 12C120.968 13.1046 121.87 14 122.984 14C124.097 14 125 13.1046 125 12C125 10.8954 124.097 10 122.984 10C121.87 10 120.968 10.8954 120.968 12ZM110.887 12C110.887 13.1046 111.79 14 112.903 14C114.017 14 114.919 13.1046 114.919 12C114.919 10.8954 114.017 10 112.903 10C111.79 10 110.887 10.8954 110.887 12ZM102.823 14C101.709 14 100.806 13.1046 100.806 12C100.806 10.8954 101.709 10 102.823 10C103.936 10 104.839 10.8954 104.839 12C104.839 13.1046 103.936 14 102.823 14ZM90.7258 12C90.7258 13.1046 91.6285 14 92.7419 14C93.8554 14 94.7581 13.1046 94.7581 12C94.7581 10.8954 93.8554 10 92.7419 10C91.6285 10 90.7258 10.8954 90.7258 12ZM82.6613 14C81.5478 14 80.6452 13.1046 80.6452 12C80.6452 10.8954 81.5478 10 82.6613 10C83.7748 10 84.6774 10.8954 84.6774 12C84.6774 13.1046 83.7748 14 82.6613 14ZM70.5645 12C70.5645 13.1046 71.4672 14 72.5806 14C73.6941 14 74.5968 13.1046 74.5968 12C74.5968 10.8954 73.6941 10 72.5806 10C71.4672 10 70.5645 10.8954 70.5645 12ZM62.5 14C61.3865 14 60.4839 13.1046 60.4839 12C60.4839 10.8954 61.3865 10 62.5 10C63.6135 10 64.5161 10.8954 64.5161 12C64.5161 13.1046 63.6135 14 62.5 14ZM50.4032 12C50.4032 13.1046 51.3059 14 52.4194 14C53.5328 14 54.4355 13.1046 54.4355 12C54.4355 10.8954 53.5328 10 52.4194 10C51.3059 10 50.4032 10.8954 50.4032 12ZM42.3387 14C41.2252 14 40.3226 13.1046 40.3226 12C40.3226 10.8954 41.2252 10 42.3387 10C43.4522 10 44.3548 10.8954 44.3548 12C44.3548 13.1046 43.4522 14 42.3387 14ZM30.2419 12C30.2419 13.1046 31.1446 14 32.2581 14C33.3715 14 34.2742 13.1046 34.2742 12C34.2742 10.8954 33.3715 10 32.2581 10C31.1446 10 30.2419 10.8954 30.2419 12ZM22.1774 14C21.0639 14 20.1613 13.1046 20.1613 12C20.1613 10.8954 21.0639 10 22.1774 10C23.2909 10 24.1936 10.8954 24.1936 12C24.1936 13.1046 23.2909 14 22.1774 14ZM10.0806 12C10.0806 13.1046 10.9833 14 12.0968 14C13.2103 14 14.1129 13.1046 14.1129 12C14.1129 10.8954 13.2103 10 12.0968 10C10.9833 10 10.0806 10.8954 10.0806 12ZM2.01613 14C0.902649 14 0 13.1046 0 12C0 10.8954 0.902649 10 2.01613 10C3.12961 10 4.03226 10.8954 4.03226 12C4.03226 13.1046 3.12961 14 2.01613 14ZM122.984 24C121.87 24 120.968 23.1046 120.968 22C120.968 20.8954 121.87 20 122.984 20C124.097 20 125 20.8954 125 22C125 23.1046 124.097 24 122.984 24ZM112.903 24C111.79 24 110.887 23.1046 110.887 22C110.887 20.8954 111.79 20 112.903 20C114.017 20 114.919 20.8954 114.919 22C114.919 23.1046 114.017 24 112.903 24ZM100.806 22C100.806 23.1046 101.709 24 102.823 24C103.936 24 104.839 23.1046 104.839 22C104.839 20.8954 103.936 20 102.823 20C101.709 20 100.806 20.8954 100.806 22ZM92.7419 24C91.6285 24 90.7258 23.1046 90.7258 22C90.7258 20.8954 91.6285 20 92.7419 20C93.8554 20 94.7581 20.8954 94.7581 22C94.7581 23.1046 93.8554 24 92.7419 24ZM80.6452 22C80.6452 23.1046 81.5478 24 82.6613 24C83.7748 24 84.6774 23.1046 84.6774 22C84.6774 20.8954 83.7748 20 82.6613 20C81.5478 20 80.6452 20.8954 80.6452 22ZM72.5806 24C71.4672 24 70.5645 23.1046 70.5645 22C70.5645 20.8954 71.4672 20 72.5806 20C73.6941 20 74.5968 20.8954 74.5968 22C74.5968 23.1046 73.6941 24 72.5806 24ZM60.4839 22C60.4839 23.1046 61.3865 24 62.5 24C63.6135 24 64.5161 23.1046 64.5161 22C64.5161 20.8954 63.6135 20 62.5 20C61.3865 20 60.4839 20.8954 60.4839 22ZM52.4194 24C51.3059 24 50.4032 23.1046 50.4032 22C50.4032 20.8954 51.3059 20 52.4194 20C53.5328 20 54.4355 20.8954 54.4355 22C54.4355 23.1046 53.5328 24 52.4194 24ZM40.3226 22C40.3226 23.1046 41.2252 24 42.3387 24C43.4522 24 44.3548 23.1046 44.3548 22C44.3548 20.8954 43.4522 20 42.3387 20C41.2252 20 40.3226 20.8954 40.3226 22ZM32.2581 24C31.1446 24 30.2419 23.1046 30.2419 22C30.2419 20.8954 31.1446 20 32.2581 20C33.3715 20 34.2742 20.8954 34.2742 22C34.2742 23.1046 33.3715 24 32.2581 24ZM20.1613 22C20.1613 23.1046 21.0639 24 22.1774 24C23.2909 24 24.1936 23.1046 24.1936 22C24.1936 20.8954 23.2909 20 22.1774 20C21.0639 20 20.1613 20.8954 20.1613 22ZM12.0968 24C10.9833 24 10.0806 23.1046 10.0806 22C10.0806 20.8954 10.9833 20 12.0968 20C13.2103 20 14.1129 20.8954 14.1129 22C14.1129 23.1046 13.2103 24 12.0968 24ZM0 22C0 23.1046 0.902649 24 2.01613 24C3.12961 24 4.03226 23.1046 4.03226 22C4.03226 20.8954 3.12961 20 2.01613 20C0.902649 20 0 20.8954 0 22ZM120.968 32C120.968 33.1046 121.87 34 122.984 34C124.097 34 125 33.1046 125 32C125 30.8954 124.097 30 122.984 30C121.87 30 120.968 30.8954 120.968 32ZM110.887 32C110.887 33.1046 111.79 34 112.903 34C114.017 34 114.919 33.1046 114.919 32C114.919 30.8954 114.017 30 112.903 30C111.79 30 110.887 30.8954 110.887 32ZM102.823 34C101.709 34 100.806 33.1046 100.806 32C100.806 30.8954 101.709 30 102.823 30C103.936 30 104.839 30.8954 104.839 32C104.839 33.1046 103.936 34 102.823 34ZM90.7258 32C90.7258 33.1046 91.6285 34 92.7419 34C93.8554 34 94.7581 33.1046 94.7581 32C94.7581 30.8954 93.8554 30 92.7419 30C91.6285 30 90.7258 30.8954 90.7258 32ZM82.6613 34C81.5478 34 80.6452 33.1046 80.6452 32C80.6452 30.8954 81.5478 30 82.6613 30C83.7748 30 84.6774 30.8954 84.6774 32C84.6774 33.1046 83.7748 34 82.6613 34ZM70.5645 32C70.5645 33.1046 71.4672 34 72.5806 34C73.6941 34 74.5968 33.1046 74.5968 32C74.5968 30.8954 73.6941 30 72.5806 30C71.4672 30 70.5645 30.8954 70.5645 32ZM62.5 34C61.3865 34 60.4839 33.1046 60.4839 32C60.4839 30.8954 61.3865 30 62.5 30C63.6135 30 64.5161 30.8954 64.5161 32C64.5161 33.1046 63.6135 34 62.5 34ZM50.4032 32C50.4032 33.1046 51.3059 34 52.4194 34C53.5328 34 54.4355 33.1046 54.4355 32C54.4355 30.8954 53.5328 30 52.4194 30C51.3059 30 50.4032 30.8954 50.4032 32ZM42.3387 34C41.2252 34 40.3226 33.1046 40.3226 32C40.3226 30.8954 41.2252 30 42.3387 30C43.4522 30 44.3548 30.8954 44.3548 32C44.3548 33.1046 43.4522 34 42.3387 34ZM30.2419 32C30.2419 33.1046 31.1446 34 32.2581 34C33.3715 34 34.2742 33.1046 34.2742 32C34.2742 30.8954 33.3715 30 32.2581 30C31.1446 30 30.2419 30.8954 30.2419 32ZM22.1774 34C21.0639 34 20.1613 33.1046 20.1613 32C20.1613 30.8954 21.0639 30 22.1774 30C23.2909 30 24.1936 30.8954 24.1936 32C24.1936 33.1046 23.2909 34 22.1774 34ZM10.0806 32C10.0806 33.1046 10.9833 34 12.0968 34C13.2103 34 14.1129 33.1046 14.1129 32C14.1129 30.8954 13.2103 30 12.0968 30C10.9833 30 10.0806 30.8954 10.0806 32ZM2.01613 34C0.902649 34 0 33.1046 0 32C0 30.8954 0.902649 30 2.01613 30C3.12961 30 4.03226 30.8954 4.03226 32C4.03226 33.1046 3.12961 34 2.01613 34ZM122.984 44C121.87 44 120.968 43.1046 120.968 42C120.968 40.8954 121.87 40 122.984 40C124.097 40 125 40.8954 125 42C125 43.1046 124.097 44 122.984 44ZM112.903 44C111.79 44 110.887 43.1046 110.887 42C110.887 40.8954 111.79 40 112.903 40C114.017 40 114.919 40.8954 114.919 42C114.919 43.1046 114.017 44 112.903 44ZM100.806 42C100.806 43.1046 101.709 44 102.823 44C103.936 44 104.839 43.1046 104.839 42C104.839 40.8954 103.936 40 102.823 40C101.709 40 100.806 40.8954 100.806 42ZM92.7419 44C91.6285 44 90.7258 43.1046 90.7258 42C90.7258 40.8954 91.6285 40 92.7419 40C93.8554 40 94.7581 40.8954 94.7581 42C94.7581 43.1046 93.8554 44 92.7419 44ZM80.6452 42C80.6452 43.1046 81.5478 44 82.6613 44C83.7748 44 84.6774 43.1046 84.6774 42C84.6774 40.8954 83.7748 40 82.6613 40C81.5478 40 80.6452 40.8954 80.6452 42ZM72.5806 44C71.4672 44 70.5645 43.1046 70.5645 42C70.5645 40.8954 71.4672 40 72.5806 40C73.6941 40 74.5968 40.8954 74.5968 42C74.5968 43.1046 73.6941 44 72.5806 44ZM60.4839 42C60.4839 43.1046 61.3865 44 62.5 44C63.6135 44 64.5161 43.1046 64.5161 42C64.5161 40.8954 63.6135 40 62.5 40C61.3865 40 60.4839 40.8954 60.4839 42ZM52.4194 44C51.3059 44 50.4032 43.1046 50.4032 42C50.4032 40.8954 51.3059 40 52.4194 40C53.5328 40 54.4355 40.8954 54.4355 42C54.4355 43.1046 53.5328 44 52.4194 44ZM40.3226 42C40.3226 43.1046 41.2252 44 42.3387 44C43.4522 44 44.3548 43.1046 44.3548 42C44.3548 40.8954 43.4522 40 42.3387 40C41.2252 40 40.3226 40.8954 40.3226 42ZM32.2581 44C31.1446 44 30.2419 43.1046 30.2419 42C30.2419 40.8954 31.1446 40 32.2581 40C33.3715 40 34.2742 40.8954 34.2742 42C34.2742 43.1046 33.3715 44 32.2581 44ZM20.1613 42C20.1613 43.1046 21.0639 44 22.1774 44C23.2909 44 24.1936 43.1046 24.1936 42C24.1936 40.8954 23.2909 40 22.1774 40C21.0639 40 20.1613 40.8954 20.1613 42ZM12.0968 44C10.9833 44 10.0806 43.1046 10.0806 42C10.0806 40.8954 10.9833 40 12.0968 40C13.2103 40 14.1129 40.8954 14.1129 42C14.1129 43.1046 13.2103 44 12.0968 44ZM0 42C0 43.1046 0.902649 44 2.01613 44C3.12961 44 4.03226 43.1046 4.03226 42C4.03226 40.8954 3.12961 40 2.01613 40C0.902649 40 0 40.8954 0 42ZM120.968 52C120.968 53.1046 121.87 54 122.984 54C124.097 54 125 53.1046 125 52C125 50.8954 124.097 50 122.984 50C121.87 50 120.968 50.8954 120.968 52ZM110.887 52C110.887 53.1046 111.79 54 112.903 54C114.017 54 114.919 53.1046 114.919 52C114.919 50.8954 114.017 50 112.903 50C111.79 50 110.887 50.8954 110.887 52ZM102.823 54C101.709 54 100.806 53.1046 100.806 52C100.806 50.8954 101.709 50 102.823 50C103.936 50 104.839 50.8954 104.839 52C104.839 53.1046 103.936 54 102.823 54ZM90.7258 52C90.7258 53.1046 91.6285 54 92.7419 54C93.8554 54 94.7581 53.1046 94.7581 52C94.7581 50.8954 93.8554 50 92.7419 50C91.6285 50 90.7258 50.8954 90.7258 52ZM82.6613 54C81.5478 54 80.6452 53.1046 80.6452 52C80.6452 50.8954 81.5478 50 82.6613 50C83.7748 50 84.6774 50.8954 84.6774 52C84.6774 53.1046 83.7748 54 82.6613 54ZM70.5645 52C70.5645 53.1046 71.4672 54 72.5806 54C73.6941 54 74.5968 53.1046 74.5968 52C74.5968 50.8954 73.6941 50 72.5806 50C71.4672 50 70.5645 50.8954 70.5645 52ZM62.5 54C61.3865 54 60.4839 53.1046 60.4839 52C60.4839 50.8954 61.3865 50 62.5 50C63.6135 50 64.5161 50.8954 64.5161 52C64.5161 53.1046 63.6135 54 62.5 54ZM50.4032 52C50.4032 53.1046 51.3059 54 52.4194 54C53.5328 54 54.4355 53.1046 54.4355 52C54.4355 50.8954 53.5328 50 52.4194 50C51.3059 50 50.4032 50.8954 50.4032 52ZM42.3387 54C41.2252 54 40.3226 53.1046 40.3226 52C40.3226 50.8954 41.2252 50 42.3387 50C43.4522 50 44.3548 50.8954 44.3548 52C44.3548 53.1046 43.4522 54 42.3387 54ZM30.2419 52C30.2419 53.1046 31.1446 54 32.2581 54C33.3715 54 34.2742 53.1046 34.2742 52C34.2742 50.8954 33.3715 50 32.2581 50C31.1446 50 30.2419 50.8954 30.2419 52ZM22.1774 54C21.0639 54 20.1613 53.1046 20.1613 52C20.1613 50.8954 21.0639 50 22.1774 50C23.2909 50 24.1936 50.8954 24.1936 52C24.1936 53.1046 23.2909 54 22.1774 54ZM10.0806 52C10.0806 53.1046 10.9833 54 12.0968 54C13.2103 54 14.1129 53.1046 14.1129 52C14.1129 50.8954 13.2103 50 12.0968 50C10.9833 50 10.0806 50.8954 10.0806 52ZM2.01613 54C0.902649 54 0 53.1046 0 52C0 50.8954 0.902649 50 2.01613 50C3.12961 50 4.03226 50.8954 4.03226 52C4.03226 53.1046 3.12961 54 2.01613 54ZM122.984 64C121.87 64 120.968 63.1046 120.968 62C120.968 60.8954 121.87 60 122.984 60C124.097 60 125 60.8954 125 62C125 63.1046 124.097 64 122.984 64ZM112.903 64C111.79 64 110.887 63.1046 110.887 62C110.887 60.8954 111.79 60 112.903 60C114.017 60 114.919 60.8954 114.919 62C114.919 63.1046 114.017 64 112.903 64ZM100.806 62C100.806 63.1046 101.709 64 102.823 64C103.936 64 104.839 63.1046 104.839 62C104.839 60.8954 103.936 60 102.823 60C101.709 60 100.806 60.8954 100.806 62ZM92.7419 64C91.6285 64 90.7258 63.1046 90.7258 62C90.7258 60.8954 91.6285 60 92.7419 60C93.8554 60 94.7581 60.8954 94.7581 62C94.7581 63.1046 93.8554 64 92.7419 64ZM80.6452 62C80.6452 63.1046 81.5478 64 82.6613 64C83.7748 64 84.6774 63.1046 84.6774 62C84.6774 60.8954 83.7748 60 82.6613 60C81.5478 60 80.6452 60.8954 80.6452 62ZM72.5806 64C71.4672 64 70.5645 63.1046 70.5645 62C70.5645 60.8954 71.4672 60 72.5806 60C73.6941 60 74.5968 60.8954 74.5968 62C74.5968 63.1046 73.6941 64 72.5806 64ZM60.4839 62C60.4839 63.1046 61.3865 64 62.5 64C63.6135 64 64.5161 63.1046 64.5161 62C64.5161 60.8954 63.6135 60 62.5 60C61.3865 60 60.4839 60.8954 60.4839 62ZM52.4194 64C51.3059 64 50.4032 63.1046 50.4032 62C50.4032 60.8954 51.3059 60 52.4194 60C53.5328 60 54.4355 60.8954 54.4355 62C54.4355 63.1046 53.5328 64 52.4194 64ZM40.3226 62C40.3226 63.1046 41.2252 64 42.3387 64C43.4522 64 44.3548 63.1046 44.3548 62C44.3548 60.8954 43.4522 60 42.3387 60C41.2252 60 40.3226 60.8954 40.3226 62ZM32.2581 64C31.1446 64 30.2419 63.1046 30.2419 62C30.2419 60.8954 31.1446 60 32.2581 60C33.3715 60 34.2742 60.8954 34.2742 62C34.2742 63.1046 33.3715 64 32.2581 64ZM20.1613 62C20.1613 63.1046 21.0639 64 22.1774 64C23.2909 64 24.1936 63.1046 24.1936 62C24.1936 60.8954 23.2909 60 22.1774 60C21.0639 60 20.1613 60.8954 20.1613 62ZM12.0968 64C10.9833 64 10.0806 63.1046 10.0806 62C10.0806 60.8954 10.9833 60 12.0968 60C13.2103 60 14.1129 60.8954 14.1129 62C14.1129 63.1046 13.2103 64 12.0968 64ZM0 62C0 63.1046 0.902649 64 2.01613 64C3.12961 64 4.03226 63.1046 4.03226 62C4.03226 60.8954 3.12961 60 2.01613 60C0.902649 60 0 60.8954 0 62ZM120.968 72C120.968 73.1046 121.87 74 122.984 74C124.097 74 125 73.1046 125 72C125 70.8954 124.097 70 122.984 70C121.87 70 120.968 70.8954 120.968 72ZM110.887 72C110.887 73.1046 111.79 74 112.903 74C114.017 74 114.919 73.1046 114.919 72C114.919 70.8954 114.017 70 112.903 70C111.79 70 110.887 70.8954 110.887 72ZM102.823 74C101.709 74 100.806 73.1046 100.806 72C100.806 70.8954 101.709 70 102.823 70C103.936 70 104.839 70.8954 104.839 72C104.839 73.1046 103.936 74 102.823 74ZM90.7258 72C90.7258 73.1046 91.6285 74 92.7419 74C93.8554 74 94.7581 73.1046 94.7581 72C94.7581 70.8954 93.8554 70 92.7419 70C91.6285 70 90.7258 70.8954 90.7258 72ZM82.6613 74C81.5478 74 80.6452 73.1046 80.6452 72C80.6452 70.8954 81.5478 70 82.6613 70C83.7748 70 84.6774 70.8954 84.6774 72C84.6774 73.1046 83.7748 74 82.6613 74ZM70.5645 72C70.5645 73.1046 71.4672 74 72.5806 74C73.6941 74 74.5968 73.1046 74.5968 72C74.5968 70.8954 73.6941 70 72.5806 70C71.4672 70 70.5645 70.8954 70.5645 72ZM62.5 74C61.3865 74 60.4839 73.1046 60.4839 72C60.4839 70.8954 61.3865 70 62.5 70C63.6135 70 64.5161 70.8954 64.5161 72C64.5161 73.1046 63.6135 74 62.5 74ZM50.4032 72C50.4032 73.1046 51.3059 74 52.4194 74C53.5328 74 54.4355 73.1046 54.4355 72C54.4355 70.8954 53.5328 70 52.4194 70C51.3059 70 50.4032 70.8954 50.4032 72ZM42.3387 74C41.2252 74 40.3226 73.1046 40.3226 72C40.3226 70.8954 41.2252 70 42.3387 70C43.4522 70 44.3548 70.8954 44.3548 72C44.3548 73.1046 43.4522 74 42.3387 74ZM30.2419 72C30.2419 73.1046 31.1446 74 32.2581 74C33.3715 74 34.2742 73.1046 34.2742 72C34.2742 70.8954 33.3715 70 32.2581 70C31.1446 70 30.2419 70.8954 30.2419 72ZM22.1774 74C21.0639 74 20.1613 73.1046 20.1613 72C20.1613 70.8954 21.0639 70 22.1774 70C23.2909 70 24.1936 70.8954 24.1936 72C24.1936 73.1046 23.2909 74 22.1774 74ZM10.0806 72C10.0806 73.1046 10.9833 74 12.0968 74C13.2103 74 14.1129 73.1046 14.1129 72C14.1129 70.8954 13.2103 70 12.0968 70C10.9833 70 10.0806 70.8954 10.0806 72ZM2.01613 74C0.902649 74 0 73.1046 0 72C0 70.8954 0.902649 70 2.01613 70C3.12961 70 4.03226 70.8954 4.03226 72C4.03226 73.1046 3.12961 74 2.01613 74ZM122.984 84C121.87 84 120.968 83.1046 120.968 82C120.968 80.8954 121.87 80 122.984 80C124.097 80 125 80.8954 125 82C125 83.1046 124.097 84 122.984 84ZM112.903 84C111.79 84 110.887 83.1046 110.887 82C110.887 80.8954 111.79 80 112.903 80C114.017 80 114.919 80.8954 114.919 82C114.919 83.1046 114.017 84 112.903 84ZM100.806 82C100.806 83.1046 101.709 84 102.823 84C103.936 84 104.839 83.1046 104.839 82C104.839 80.8954 103.936 80 102.823 80C101.709 80 100.806 80.8954 100.806 82ZM92.7419 84C91.6285 84 90.7258 83.1046 90.7258 82C90.7258 80.8954 91.6285 80 92.7419 80C93.8554 80 94.7581 80.8954 94.7581 82C94.7581 83.1046 93.8554 84 92.7419 84ZM80.6452 82C80.6452 83.1046 81.5478 84 82.6613 84C83.7748 84 84.6774 83.1046 84.6774 82C84.6774 80.8954 83.7748 80 82.6613 80C81.5478 80 80.6452 80.8954 80.6452 82ZM72.5806 84C71.4672 84 70.5645 83.1046 70.5645 82C70.5645 80.8954 71.4672 80 72.5806 80C73.6941 80 74.5968 80.8954 74.5968 82C74.5968 83.1046 73.6941 84 72.5806 84ZM60.4839 82C60.4839 83.1046 61.3865 84 62.5 84C63.6135 84 64.5161 83.1046 64.5161 82C64.5161 80.8954 63.6135 80 62.5 80C61.3865 80 60.4839 80.8954 60.4839 82ZM52.4194 84C51.3059 84 50.4032 83.1046 50.4032 82C50.4032 80.8954 51.3059 80 52.4194 80C53.5328 80 54.4355 80.8954 54.4355 82C54.4355 83.1046 53.5328 84 52.4194 84ZM40.3226 82C40.3226 83.1046 41.2252 84 42.3387 84C43.4522 84 44.3548 83.1046 44.3548 82C44.3548 80.8954 43.4522 80 42.3387 80C41.2252 80 40.3226 80.8954 40.3226 82ZM32.2581 84C31.1446 84 30.2419 83.1046 30.2419 82C30.2419 80.8954 31.1446 80 32.2581 80C33.3715 80 34.2742 80.8954 34.2742 82C34.2742 83.1046 33.3715 84 32.2581 84ZM20.1613 82C20.1613 83.1046 21.0639 84 22.1774 84C23.2909 84 24.1936 83.1046 24.1936 82C24.1936 80.8954 23.2909 80 22.1774 80C21.0639 80 20.1613 80.8954 20.1613 82ZM12.0968 84C10.9833 84 10.0806 83.1046 10.0806 82C10.0806 80.8954 10.9833 80 12.0968 80C13.2103 80 14.1129 80.8954 14.1129 82C14.1129 83.1046 13.2103 84 12.0968 84ZM0 82C0 83.1046 0.902649 84 2.01613 84C3.12961 84 4.03226 83.1046 4.03226 82C4.03226 80.8954 3.12961 80 2.01613 80C0.902649 80 0 80.8954 0 82Z" fill="url(#paint0_linear)"/>
</mask>
<g mask="url(#mask0)">
<circle cx="77.5" cy="45.5" r="43.5" fill="#C4C4C4"/>
</g>
<defs>
<linearGradient id="paint0_linear" x1="113.911" y1="42" x2="34.4953" y2="78.4814" gradientUnits="userSpaceOnUse">
<stop stop-color="#C4C4C4"/>
<stop offset="1" stop-color="#C4C4C4" stop-opacity="0"/>
</linearGradient>
</defs>
</svg>
