<svg width="208" height="99" viewBox="0 0 208 99" fill="none" xmlns="http://www.w3.org/2000/svg">
<path d="M39.4724 9.68177C40.5648 9.68177 41.4336 10.0542 42.0791 10.7989C42.7742 11.494 43.1218 12.4126 43.1218 13.5545V59.0596C43.1218 60.2015 42.7742 61.1449 42.0791 61.8897C41.384 62.5848 40.4903 62.9323 39.398 62.9323C38.107 62.9323 37.114 62.4358 36.4189 61.4428L7.2242 22.9386V59.0596C7.2242 60.2015 6.87665 61.1449 6.18153 61.8897C5.53607 62.5848 4.66718 62.9323 3.57486 62.9323C2.48254 62.9323 1.61365 62.5848 0.968193 61.8897C0.322731 61.1946 0 60.2512 0 59.0596V13.5545C0 12.4126 0.347556 11.494 1.04267 10.7989C1.73778 10.0542 2.6315 9.68177 3.72381 9.68177C5.01474 9.68177 6.00775 10.1783 6.70287 11.1713L35.8976 49.75V13.5545C35.8976 12.4126 36.2203 11.494 36.8658 10.7989C37.5112 10.0542 38.3801 9.68177 39.4724 9.68177Z" fill="white"/>
<path d="M82.9043 53.3994C83.5994 53.3994 84.1704 53.6724 84.6173 54.2186C85.0641 54.7648 85.2876 55.4599 85.2876 56.3039C85.2876 57.7438 84.3939 58.9603 82.6064 59.9533C80.8687 60.9463 78.9571 61.7159 76.8718 62.2621C74.8361 62.8082 72.8749 63.0813 70.9881 63.0813C65.2286 63.0813 60.6856 61.418 57.359 58.0914C54.0324 54.7151 52.3691 50.1224 52.3691 44.3133C52.3691 40.5894 53.089 37.2877 54.5289 34.4079C56.0184 31.5282 58.0789 29.2939 60.7104 27.705C63.3915 26.1162 66.4202 25.3218 69.7965 25.3218C74.6623 25.3218 78.5102 26.8858 81.3403 30.0138C84.1704 33.1418 85.5855 37.3621 85.5855 42.6748C85.5855 44.6608 84.6918 45.6538 82.9043 45.6538H59.8912C60.3877 53.3497 64.0867 57.1977 70.9881 57.1977C72.8252 57.1977 74.414 56.9494 75.7546 56.4529C77.0952 55.9564 78.5102 55.3109 79.9998 54.5165C80.1487 54.4172 80.5459 54.2186 81.1914 53.9207C81.8865 53.5731 82.4575 53.3994 82.9043 53.3994ZM69.9455 30.833C67.0657 30.833 64.7569 31.7516 63.0192 33.5887C61.2814 35.4258 60.2387 38.0076 59.8912 41.3342H79.106C78.9571 37.9579 78.0882 35.3761 76.4994 33.5887C74.9602 31.7516 72.7756 30.833 69.9455 30.833Z" fill="white"/>
<path d="M112.94 25.4708C115.324 25.3218 116.515 26.3396 116.515 28.5243C116.515 29.6166 116.242 30.4358 115.696 30.982C115.15 31.5282 114.206 31.8509 112.866 31.9502L110.632 32.1736C107.504 32.4715 105.17 33.5638 103.631 35.4506C102.141 37.3373 101.397 39.6213 101.397 42.3024V59.3575C101.397 60.5491 101.049 61.4428 100.354 62.0386C99.6588 62.6344 98.7651 62.9323 97.6728 62.9323C96.5804 62.9323 95.6619 62.6344 94.9171 62.0386C94.222 61.4428 93.8745 60.5491 93.8745 59.3575V29.0456C93.8745 27.9036 94.222 27.0348 94.9171 26.4389C95.6619 25.7935 96.5804 25.4708 97.6728 25.4708C98.6658 25.4708 99.485 25.7935 100.13 26.4389C100.826 27.0348 101.173 27.8788 101.173 28.9711V32.546C102.166 30.3614 103.606 28.6981 105.493 27.5561C107.379 26.4141 109.514 25.7438 111.898 25.5452L112.94 25.4708Z" fill="white"/>
<path d="M124.947 62.9323C123.854 62.9323 122.936 62.6344 122.191 62.0386C121.496 61.4428 121.148 60.5491 121.148 59.3575V29.1201C121.148 27.9285 121.496 27.0348 122.191 26.4389C122.936 25.7935 123.854 25.4708 124.947 25.4708C126.039 25.4708 126.933 25.7935 127.628 26.4389C128.323 27.0348 128.671 27.9285 128.671 29.1201V59.3575C128.671 60.5491 128.323 61.4428 127.628 62.0386C126.933 62.6344 126.039 62.9323 124.947 62.9323ZM124.947 18.1721C123.507 18.1721 122.365 17.7749 121.521 16.9805C120.677 16.186 120.255 15.1434 120.255 13.8524C120.255 12.5615 120.677 11.5437 121.521 10.7989C122.365 10.0045 123.507 9.6073 124.947 9.6073C126.337 9.6073 127.454 10.0045 128.298 10.7989C129.192 11.5437 129.639 12.5615 129.639 13.8524C129.639 15.1434 129.217 16.186 128.373 16.9805C127.529 17.7749 126.387 18.1721 124.947 18.1721Z" fill="white"/>
<path d="M158.004 57.1977C159.096 57.297 159.866 57.5949 160.313 58.0914C160.809 58.5382 161.057 59.1837 161.057 60.0278C161.057 61.0208 160.66 61.7904 159.866 62.3365C159.121 62.833 158.004 63.0316 156.514 62.9323L154.503 62.7834C150.482 62.4855 147.478 61.269 145.492 59.134C143.506 56.9494 142.513 53.7469 142.513 49.5266V32.0247H138.044C135.859 32.0247 134.767 31.0565 134.767 29.1201C134.767 28.2264 135.04 27.5313 135.586 27.0348C136.182 26.4886 137.001 26.2155 138.044 26.2155H142.513V18.5445C142.513 17.4025 142.835 16.5088 143.481 15.8633C144.176 15.2178 145.095 14.8951 146.237 14.8951C147.378 14.8951 148.297 15.2178 148.992 15.8633C149.687 16.5088 150.035 17.4025 150.035 18.5445V26.2155H157.408C158.451 26.2155 159.245 26.4886 159.791 27.0348C160.387 27.5313 160.685 28.2264 160.685 29.1201C160.685 30.0635 160.387 30.7834 159.791 31.2799C159.245 31.7764 158.451 32.0247 157.408 32.0247H150.035V50.0479C150.035 52.3815 150.507 54.0945 151.45 55.1868C152.443 56.2791 153.932 56.8998 155.918 57.0487L158.004 57.1977Z" fill="white"/>
<path d="M184.322 21.2306C192.634 21.1988 200.146 26.1814 203.349 33.8518C206.552 41.5223 204.815 50.3672 198.948 56.2562C193.082 62.1452 184.244 63.9165 176.561 60.7428C168.878 57.5692 163.867 50.0768 163.867 41.7644C163.845 30.4458 173.003 21.2526 184.322 21.2306Z" fill="#EFAB23"/>
<path d="M187.06 64C198.342 64 207.488 54.8065 207.488 43.4658C207.488 32.1251 198.342 22.9316 187.06 22.9316C175.778 22.9316 166.632 32.1251 166.632 43.4658C166.632 54.8065 175.778 64 187.06 64Z" fill="#EDDD64"/>
<path d="M138.163 12.3775C141.572 12.3775 144.334 9.60673 144.334 6.18877C144.334 2.77081 141.572 0 138.163 0C134.755 0 131.992 2.77081 131.992 6.18877C131.992 9.60673 134.755 12.3775 138.163 12.3775Z" fill="#EDDD64"/>
<path d="M153.698 12.3775C157.106 12.3775 159.869 9.60673 159.869 6.18877C159.869 2.77081 157.106 0 153.698 0C150.29 0 147.527 2.77081 147.527 6.18877C147.527 9.60673 150.29 12.3775 153.698 12.3775Z" fill="#EDDD64"/>
<path d="M166.466 21.101C169.874 21.101 172.637 18.3302 172.637 14.9123C172.637 11.4943 169.874 8.72351 166.466 8.72351C163.058 8.72351 160.295 11.4943 160.295 14.9123C160.295 18.3302 163.058 21.101 166.466 21.101Z" fill="#EDDD64"/>
<path d="M124.865 21.3151C128.45 21.3151 131.356 18.4014 131.356 14.8071C131.356 11.2129 128.45 8.29919 124.865 8.29919C121.281 8.29919 118.375 11.2129 118.375 14.8071C118.375 18.4014 121.281 21.3151 124.865 21.3151Z" fill="#EDDD64"/>
<path d="M47.7647 94C47.494 94 47.2793 93.9253 47.1207 93.776C46.9713 93.6267 46.8967 93.4167 46.8967 93.146V84.984C46.8967 84.7133 46.9713 84.5033 47.1207 84.354C47.2793 84.2047 47.494 84.13 47.7647 84.13H50.5367C52.1513 84.13 53.402 84.564 54.2887 85.432C55.1847 86.2907 55.6327 87.4993 55.6327 89.058C55.6327 90.626 55.1847 91.844 54.2887 92.712C53.402 93.5707 52.1513 94 50.5367 94H47.7647ZM50.4247 92.53C52.6927 92.53 53.8267 91.3727 53.8267 89.058C53.8267 86.7527 52.6927 85.6 50.4247 85.6H48.7027V92.53H50.4247ZM63.2753 92.124C63.434 92.124 63.56 92.1847 63.6533 92.306C63.756 92.4273 63.8073 92.5907 63.8073 92.796C63.8073 93.0853 63.6347 93.328 63.2893 93.524C62.972 93.7013 62.6127 93.846 62.2113 93.958C61.81 94.0607 61.4273 94.112 61.0633 94.112C59.962 94.112 59.0893 93.7947 58.4453 93.16C57.8013 92.5253 57.4793 91.6573 57.4793 90.556C57.4793 89.856 57.6193 89.2353 57.8993 88.694C58.1793 88.1527 58.5713 87.7327 59.0753 87.434C59.5887 87.1353 60.1673 86.986 60.8113 86.986C61.4273 86.986 61.964 87.1213 62.4213 87.392C62.8787 87.6627 63.2333 88.0453 63.4853 88.54C63.7373 89.0347 63.8633 89.618 63.8633 90.29C63.8633 90.6913 63.686 90.892 63.3313 90.892H59.2013C59.2573 91.536 59.4393 92.012 59.7473 92.32C60.0553 92.6187 60.5033 92.768 61.0913 92.768C61.39 92.768 61.6513 92.7307 61.8753 92.656C62.1087 92.5813 62.37 92.4787 62.6593 92.348C62.9393 92.1987 63.1447 92.124 63.2753 92.124ZM60.8533 88.218C60.3773 88.218 59.9947 88.3673 59.7053 88.666C59.4253 88.9647 59.2573 89.394 59.2013 89.954H62.3653C62.3467 89.3847 62.2067 88.9553 61.9453 88.666C61.684 88.3673 61.32 88.218 60.8533 88.218ZM68.3328 94.112C67.3155 94.112 66.4942 93.9113 65.8688 93.51C65.5702 93.3327 65.4208 93.0807 65.4208 92.754C65.4208 92.5673 65.4722 92.418 65.5748 92.306C65.6775 92.1847 65.8035 92.124 65.9528 92.124C66.1115 92.124 66.3308 92.1987 66.6108 92.348C66.9095 92.488 67.1802 92.5953 67.4228 92.67C67.6748 92.7447 67.9922 92.782 68.3748 92.782C68.7668 92.782 69.0702 92.7167 69.2848 92.586C69.5088 92.4553 69.6208 92.2733 69.6208 92.04C69.6208 91.8813 69.5742 91.7553 69.4808 91.662C69.3968 91.5687 69.2382 91.4847 69.0048 91.41C68.7808 91.326 68.4355 91.2327 67.9688 91.13C67.1382 90.962 66.5408 90.724 66.1768 90.416C65.8222 90.108 65.6448 89.6833 65.6448 89.142C65.6448 88.7313 65.7662 88.3627 66.0088 88.036C66.2515 87.7 66.5828 87.4433 67.0028 87.266C67.4322 87.0793 67.9175 86.986 68.4588 86.986C68.8508 86.986 69.2288 87.0373 69.5928 87.14C69.9568 87.2333 70.2835 87.3733 70.5728 87.56C70.8715 87.7467 71.0208 87.994 71.0208 88.302C71.0208 88.4887 70.9695 88.6473 70.8668 88.778C70.7642 88.8993 70.6382 88.96 70.4888 88.96C70.3862 88.96 70.2835 88.9413 70.1808 88.904C70.0875 88.8573 69.9662 88.792 69.8168 88.708C69.5462 88.568 69.3128 88.4653 69.1168 88.4C68.9208 88.3253 68.6782 88.288 68.3888 88.288C68.0435 88.288 67.7682 88.358 67.5628 88.498C67.3668 88.638 67.2688 88.8293 67.2688 89.072C67.2688 89.3053 67.3715 89.4827 67.5768 89.604C67.7822 89.7253 68.1788 89.8467 68.7668 89.968C69.3922 90.0987 69.8822 90.248 70.2368 90.416C70.5915 90.584 70.8435 90.794 70.9928 91.046C71.1515 91.298 71.2308 91.62 71.2308 92.012C71.2308 92.6467 70.9648 93.1553 70.4328 93.538C69.9102 93.9207 69.2102 94.112 68.3328 94.112ZM78.6278 92.124C78.7864 92.124 78.9124 92.1847 79.0058 92.306C79.1084 92.4273 79.1598 92.5907 79.1598 92.796C79.1598 93.0853 78.9871 93.328 78.6418 93.524C78.3244 93.7013 77.9651 93.846 77.5638 93.958C77.1624 94.0607 76.7798 94.112 76.4158 94.112C75.3144 94.112 74.4418 93.7947 73.7978 93.16C73.1538 92.5253 72.8318 91.6573 72.8318 90.556C72.8318 89.856 72.9718 89.2353 73.2518 88.694C73.5318 88.1527 73.9238 87.7327 74.4278 87.434C74.9411 87.1353 75.5198 86.986 76.1638 86.986C76.7798 86.986 77.3164 87.1213 77.7738 87.392C78.2311 87.6627 78.5858 88.0453 78.8378 88.54C79.0898 89.0347 79.2158 89.618 79.2158 90.29C79.2158 90.6913 79.0384 90.892 78.6838 90.892H74.5538C74.6098 91.536 74.7918 92.012 75.0998 92.32C75.4078 92.6187 75.8558 92.768 76.4438 92.768C76.7424 92.768 77.0038 92.7307 77.2278 92.656C77.4611 92.5813 77.7224 92.4787 78.0118 92.348C78.2918 92.1987 78.4971 92.124 78.6278 92.124ZM76.2058 88.218C75.7298 88.218 75.3471 88.3673 75.0578 88.666C74.7778 88.9647 74.6098 89.394 74.5538 89.954H77.7178C77.6991 89.3847 77.5591 88.9553 77.2978 88.666C77.0364 88.3673 76.6724 88.218 76.2058 88.218ZM89.3413 86.986C90.0879 86.986 90.6573 87.21 91.0493 87.658C91.4506 88.0967 91.6513 88.8107 91.6513 89.8V93.244C91.6513 93.5147 91.5673 93.7247 91.3993 93.874C91.2406 94.014 91.0306 94.084 90.7693 94.084C90.5173 94.084 90.3073 94.014 90.1393 93.874C89.9806 93.7247 89.9013 93.5147 89.9013 93.244V89.8C89.9013 89.2867 89.8079 88.9227 89.6213 88.708C89.4439 88.484 89.1686 88.372 88.7953 88.372C88.3379 88.372 87.9739 88.5307 87.7033 88.848C87.4326 89.156 87.2973 89.5807 87.2973 90.122V93.244C87.2973 93.5147 87.2133 93.7247 87.0453 93.874C86.8866 94.014 86.6813 94.084 86.4293 94.084C86.1773 94.084 85.9673 94.014 85.7993 93.874C85.6313 93.7247 85.5473 93.5147 85.5473 93.244V89.8C85.5473 89.2867 85.4539 88.9227 85.2673 88.708C85.0899 88.484 84.8146 88.372 84.4413 88.372C83.9839 88.372 83.6199 88.5307 83.3493 88.848C83.0879 89.156 82.9573 89.5807 82.9573 90.122V93.244C82.9573 93.5147 82.8733 93.7247 82.7053 93.874C82.5373 94.014 82.3273 94.084 82.0753 94.084C81.8233 94.084 81.6133 94.014 81.4453 93.874C81.2866 93.7247 81.2073 93.5147 81.2073 93.244V87.826C81.2073 87.5647 81.2913 87.364 81.4593 87.224C81.6273 87.084 81.8373 87.014 82.0893 87.014C82.3319 87.014 82.5279 87.084 82.6773 87.224C82.8359 87.3547 82.9153 87.546 82.9153 87.798V88.134C83.1299 87.7607 83.4146 87.476 83.7693 87.28C84.1333 87.084 84.5486 86.986 85.0153 86.986C86.0419 86.986 86.7279 87.4153 87.0733 88.274C87.2786 87.882 87.5819 87.5693 87.9833 87.336C88.3846 87.1027 88.8373 86.986 89.3413 86.986ZM97.9239 86.986C98.5213 86.986 99.0486 87.1307 99.5059 87.42C99.9633 87.7093 100.318 88.12 100.57 88.652C100.831 89.184 100.962 89.8047 100.962 90.514C100.962 91.2233 100.831 91.8533 100.57 92.404C100.318 92.9453 99.9586 93.3653 99.4919 93.664C99.0346 93.9627 98.5119 94.112 97.9239 94.112C97.4293 94.112 96.9859 94.0047 96.5939 93.79C96.2113 93.5753 95.9173 93.2767 95.7119 92.894V93.244C95.7119 93.496 95.6326 93.6967 95.4739 93.846C95.3153 93.9953 95.1053 94.07 94.8439 94.07C94.5826 94.07 94.3726 93.9953 94.2139 93.846C94.0646 93.6967 93.9899 93.496 93.9899 93.244V84.872C93.9899 84.6293 94.0693 84.4333 94.2279 84.284C94.3959 84.1347 94.6106 84.06 94.8719 84.06C95.1333 84.06 95.3433 84.13 95.5019 84.27C95.6606 84.41 95.7399 84.6013 95.7399 84.844V88.148C95.9453 87.7747 96.2393 87.49 96.6219 87.294C97.0046 87.0887 97.4386 86.986 97.9239 86.986ZM97.4619 92.754C98.0126 92.754 98.4419 92.558 98.7499 92.166C99.0579 91.774 99.2119 91.2233 99.2119 90.514C99.2119 89.814 99.0579 89.2773 98.7499 88.904C98.4513 88.5307 98.0219 88.344 97.4619 88.344C96.9019 88.344 96.4679 88.5353 96.1599 88.918C95.8613 89.2913 95.7119 89.8327 95.7119 90.542C95.7119 91.2513 95.8613 91.7973 96.1599 92.18C96.4679 92.5627 96.9019 92.754 97.4619 92.754ZM106.08 94.112C105.38 94.112 104.764 93.9673 104.232 93.678C103.709 93.3887 103.303 92.9733 103.014 92.432C102.725 91.8907 102.58 91.2607 102.58 90.542C102.58 89.8233 102.725 89.198 103.014 88.666C103.303 88.1247 103.709 87.7093 104.232 87.42C104.764 87.1307 105.38 86.986 106.08 86.986C106.78 86.986 107.391 87.1307 107.914 87.42C108.446 87.7093 108.852 88.1247 109.132 88.666C109.421 89.198 109.566 89.8233 109.566 90.542C109.566 91.2607 109.421 91.8907 109.132 92.432C108.852 92.9733 108.446 93.3887 107.914 93.678C107.391 93.9673 106.78 94.112 106.08 94.112ZM106.066 92.754C106.635 92.754 107.069 92.5673 107.368 92.194C107.667 91.8207 107.816 91.27 107.816 90.542C107.816 89.8233 107.667 89.2773 107.368 88.904C107.069 88.5213 106.64 88.33 106.08 88.33C105.52 88.33 105.086 88.5213 104.778 88.904C104.479 89.2773 104.33 89.8233 104.33 90.542C104.33 91.27 104.479 91.8207 104.778 92.194C105.077 92.5673 105.506 92.754 106.066 92.754ZM112.439 94.084C112.187 94.084 111.977 94.014 111.809 93.874C111.65 93.7247 111.571 93.5147 111.571 93.244V84.886C111.571 84.6153 111.65 84.41 111.809 84.27C111.977 84.13 112.187 84.06 112.439 84.06C112.691 84.06 112.901 84.13 113.069 84.27C113.237 84.41 113.321 84.6153 113.321 84.886V93.244C113.321 93.5147 113.237 93.7247 113.069 93.874C112.901 94.014 112.691 94.084 112.439 94.084ZM118.164 94.112C117.146 94.112 116.325 93.9113 115.7 93.51C115.401 93.3327 115.252 93.0807 115.252 92.754C115.252 92.5673 115.303 92.418 115.406 92.306C115.508 92.1847 115.634 92.124 115.784 92.124C115.942 92.124 116.162 92.1987 116.442 92.348C116.74 92.488 117.011 92.5953 117.254 92.67C117.506 92.7447 117.823 92.782 118.206 92.782C118.598 92.782 118.901 92.7167 119.116 92.586C119.34 92.4553 119.452 92.2733 119.452 92.04C119.452 91.8813 119.405 91.7553 119.312 91.662C119.228 91.5687 119.069 91.4847 118.836 91.41C118.612 91.326 118.266 91.2327 117.8 91.13C116.969 90.962 116.372 90.724 116.008 90.416C115.653 90.108 115.476 89.6833 115.476 89.142C115.476 88.7313 115.597 88.3627 115.84 88.036C116.082 87.7 116.414 87.4433 116.834 87.266C117.263 87.0793 117.748 86.986 118.29 86.986C118.682 86.986 119.06 87.0373 119.424 87.14C119.788 87.2333 120.114 87.3733 120.404 87.56C120.702 87.7467 120.852 87.994 120.852 88.302C120.852 88.4887 120.8 88.6473 120.698 88.778C120.595 88.8993 120.469 88.96 120.32 88.96C120.217 88.96 120.114 88.9413 120.012 88.904C119.918 88.8573 119.797 88.792 119.648 88.708C119.377 88.568 119.144 88.4653 118.948 88.4C118.752 88.3253 118.509 88.288 118.22 88.288C117.874 88.288 117.599 88.358 117.394 88.498C117.198 88.638 117.1 88.8293 117.1 89.072C117.1 89.3053 117.202 89.4827 117.408 89.604C117.613 89.7253 118.01 89.8467 118.598 89.968C119.223 90.0987 119.713 90.248 120.068 90.416C120.422 90.584 120.674 90.794 120.824 91.046C120.982 91.298 121.062 91.62 121.062 92.012C121.062 92.6467 120.796 93.1553 120.264 93.538C119.741 93.9207 119.041 94.112 118.164 94.112ZM126.162 94.112C125.462 94.112 124.846 93.9673 124.314 93.678C123.792 93.3887 123.386 92.9733 123.096 92.432C122.807 91.8907 122.662 91.2607 122.662 90.542C122.662 89.8233 122.807 89.198 123.096 88.666C123.386 88.1247 123.792 87.7093 124.314 87.42C124.846 87.1307 125.462 86.986 126.162 86.986C126.862 86.986 127.474 87.1307 127.996 87.42C128.528 87.7093 128.934 88.1247 129.214 88.666C129.504 89.198 129.648 89.8233 129.648 90.542C129.648 91.2607 129.504 91.8907 129.214 92.432C128.934 92.9733 128.528 93.3887 127.996 93.678C127.474 93.9673 126.862 94.112 126.162 94.112ZM126.148 92.754C126.718 92.754 127.152 92.5673 127.45 92.194C127.749 91.8207 127.898 91.27 127.898 90.542C127.898 89.8233 127.749 89.2773 127.45 88.904C127.152 88.5213 126.722 88.33 126.162 88.33C125.602 88.33 125.168 88.5213 124.86 88.904C124.562 89.2773 124.412 89.8233 124.412 90.542C124.412 91.27 124.562 91.8207 124.86 92.194C125.159 92.5673 125.588 92.754 126.148 92.754ZM141.726 84.06C141.987 84.06 142.202 84.1347 142.37 84.284C142.538 84.4333 142.622 84.6293 142.622 84.872V93.244C142.622 93.496 142.543 93.6967 142.384 93.846C142.225 93.9953 142.015 94.07 141.754 94.07C141.493 94.07 141.283 93.9953 141.124 93.846C140.965 93.6967 140.886 93.496 140.886 93.244V92.894C140.681 93.2767 140.382 93.5753 139.99 93.79C139.607 94.0047 139.169 94.112 138.674 94.112C138.086 94.112 137.559 93.9627 137.092 93.664C136.635 93.3653 136.275 92.9453 136.014 92.404C135.762 91.8533 135.636 91.2233 135.636 90.514C135.636 89.8047 135.762 89.184 136.014 88.652C136.275 88.12 136.635 87.7093 137.092 87.42C137.549 87.1307 138.077 86.986 138.674 86.986C139.169 86.986 139.607 87.0887 139.99 87.294C140.373 87.4993 140.667 87.7887 140.872 88.162V84.844C140.872 84.6107 140.947 84.424 141.096 84.284C141.255 84.1347 141.465 84.06 141.726 84.06ZM139.136 92.754C139.696 92.754 140.125 92.5627 140.424 92.18C140.732 91.7973 140.886 91.2513 140.886 90.542C140.886 89.8327 140.732 89.2913 140.424 88.918C140.125 88.5353 139.701 88.344 139.15 88.344C138.59 88.344 138.156 88.5307 137.848 88.904C137.54 89.2773 137.386 89.814 137.386 90.514C137.386 91.2233 137.54 91.774 137.848 92.166C138.156 92.558 138.585 92.754 139.136 92.754ZM150.4 92.124C150.559 92.124 150.685 92.1847 150.778 92.306C150.881 92.4273 150.932 92.5907 150.932 92.796C150.932 93.0853 150.76 93.328 150.414 93.524C150.097 93.7013 149.738 93.846 149.336 93.958C148.935 94.0607 148.552 94.112 148.188 94.112C147.087 94.112 146.214 93.7947 145.57 93.16C144.926 92.5253 144.604 91.6573 144.604 90.556C144.604 89.856 144.744 89.2353 145.024 88.694C145.304 88.1527 145.696 87.7327 146.2 87.434C146.714 87.1353 147.292 86.986 147.936 86.986C148.552 86.986 149.089 87.1213 149.546 87.392C150.004 87.6627 150.358 88.0453 150.61 88.54C150.862 89.0347 150.988 89.618 150.988 90.29C150.988 90.6913 150.811 90.892 150.456 90.892H146.326C146.382 91.536 146.564 92.012 146.872 92.32C147.18 92.6187 147.628 92.768 148.216 92.768C148.515 92.768 148.776 92.7307 149 92.656C149.234 92.5813 149.495 92.4787 149.784 92.348C150.064 92.1987 150.27 92.124 150.4 92.124ZM147.978 88.218C147.502 88.218 147.12 88.3673 146.83 88.666C146.55 88.9647 146.382 89.394 146.326 89.954H149.49C149.472 89.3847 149.332 88.9553 149.07 88.666C148.809 88.3673 148.445 88.218 147.978 88.218ZM161.316 86.986C162.138 86.986 162.749 87.2193 163.15 87.686C163.552 88.1527 163.752 88.8573 163.752 89.8V93.244C163.752 93.5053 163.673 93.7107 163.514 93.86C163.365 94.0093 163.155 94.084 162.884 94.084C162.614 94.084 162.399 94.0093 162.24 93.86C162.082 93.7107 162.002 93.5053 162.002 93.244V89.898C162.002 89.366 161.9 88.9787 161.694 88.736C161.498 88.4933 161.186 88.372 160.756 88.372C160.252 88.372 159.846 88.5307 159.538 88.848C159.24 89.1653 159.09 89.59 159.09 90.122V93.244C159.09 93.5053 159.011 93.7107 158.852 93.86C158.694 94.0093 158.479 94.084 158.208 94.084C157.938 94.084 157.723 94.0093 157.564 93.86C157.415 93.7107 157.34 93.5053 157.34 93.244V87.826C157.34 87.5833 157.42 87.3873 157.578 87.238C157.737 87.0887 157.952 87.014 158.222 87.014C158.465 87.014 158.661 87.0887 158.81 87.238C158.969 87.378 159.048 87.5647 159.048 87.798V88.176C159.282 87.7933 159.594 87.4993 159.986 87.294C160.378 87.0887 160.822 86.986 161.316 86.986ZM169.212 94.112C168.512 94.112 167.896 93.9673 167.364 93.678C166.841 93.3887 166.435 92.9733 166.146 92.432C165.857 91.8907 165.712 91.2607 165.712 90.542C165.712 89.8233 165.857 89.198 166.146 88.666C166.435 88.1247 166.841 87.7093 167.364 87.42C167.896 87.1307 168.512 86.986 169.212 86.986C169.912 86.986 170.523 87.1307 171.046 87.42C171.578 87.7093 171.984 88.1247 172.264 88.666C172.553 89.198 172.698 89.8233 172.698 90.542C172.698 91.2607 172.553 91.8907 172.264 92.432C171.984 92.9733 171.578 93.3887 171.046 93.678C170.523 93.9673 169.912 94.112 169.212 94.112ZM169.198 92.754C169.767 92.754 170.201 92.5673 170.5 92.194C170.799 91.8207 170.948 91.27 170.948 90.542C170.948 89.8233 170.799 89.2773 170.5 88.904C170.201 88.5213 169.772 88.33 169.212 88.33C168.652 88.33 168.218 88.5213 167.91 88.904C167.611 89.2773 167.462 89.8233 167.462 90.542C167.462 91.27 167.611 91.8207 167.91 92.194C168.209 92.5673 168.638 92.754 169.198 92.754ZM169.562 86.216C169.459 86.2907 169.357 86.328 169.254 86.328C169.123 86.328 169.011 86.286 168.918 86.202C168.834 86.1087 168.792 86.0013 168.792 85.88C168.792 85.7773 168.829 85.6747 168.904 85.572L170.262 83.766C170.477 83.486 170.724 83.346 171.004 83.346C171.209 83.346 171.382 83.4207 171.522 83.57C171.671 83.71 171.746 83.878 171.746 84.074C171.746 84.3353 171.62 84.5593 171.368 84.746L169.562 86.216ZM182.837 86.986C183.583 86.986 184.153 87.21 184.545 87.658C184.946 88.0967 185.147 88.8107 185.147 89.8V93.244C185.147 93.5147 185.063 93.7247 184.895 93.874C184.736 94.014 184.526 94.084 184.265 94.084C184.013 94.084 183.803 94.014 183.635 93.874C183.476 93.7247 183.397 93.5147 183.397 93.244V89.8C183.397 89.2867 183.303 88.9227 183.117 88.708C182.939 88.484 182.664 88.372 182.291 88.372C181.833 88.372 181.469 88.5307 181.199 88.848C180.928 89.156 180.793 89.5807 180.793 90.122V93.244C180.793 93.5147 180.709 93.7247 180.541 93.874C180.382 94.014 180.177 94.084 179.925 94.084C179.673 94.084 179.463 94.014 179.295 93.874C179.127 93.7247 179.043 93.5147 179.043 93.244V89.8C179.043 89.2867 178.949 88.9227 178.763 88.708C178.585 88.484 178.31 88.372 177.937 88.372C177.479 88.372 177.115 88.5307 176.845 88.848C176.583 89.156 176.453 89.5807 176.453 90.122V93.244C176.453 93.5147 176.369 93.7247 176.201 93.874C176.033 94.014 175.823 94.084 175.571 94.084C175.319 94.084 175.109 94.014 174.941 93.874C174.782 93.7247 174.703 93.5147 174.703 93.244V87.826C174.703 87.5647 174.787 87.364 174.955 87.224C175.123 87.084 175.333 87.014 175.585 87.014C175.827 87.014 176.023 87.084 176.173 87.224C176.331 87.3547 176.411 87.546 176.411 87.798V88.134C176.625 87.7607 176.91 87.476 177.265 87.28C177.629 87.084 178.044 86.986 178.511 86.986C179.537 86.986 180.223 87.4153 180.569 88.274C180.774 87.882 181.077 87.5693 181.479 87.336C181.88 87.1027 182.333 86.986 182.837 86.986ZM188.353 94.084C188.101 94.084 187.891 94.014 187.723 93.874C187.565 93.7247 187.485 93.5147 187.485 93.244V87.84C187.485 87.5693 187.565 87.364 187.723 87.224C187.891 87.084 188.101 87.014 188.353 87.014C188.605 87.014 188.815 87.084 188.983 87.224C189.151 87.364 189.235 87.5693 189.235 87.84V93.244C189.235 93.5147 189.151 93.7247 188.983 93.874C188.815 94.014 188.605 94.084 188.353 94.084ZM188.353 85.768C188.036 85.768 187.784 85.684 187.597 85.516C187.411 85.3387 187.317 85.11 187.317 84.83C187.317 84.55 187.411 84.326 187.597 84.158C187.784 83.99 188.036 83.906 188.353 83.906C188.661 83.906 188.909 83.99 189.095 84.158C189.291 84.326 189.389 84.55 189.389 84.83C189.389 85.11 189.296 85.3387 189.109 85.516C188.923 85.684 188.671 85.768 188.353 85.768ZM195.576 86.986C196.397 86.986 197.009 87.2193 197.41 87.686C197.811 88.1527 198.012 88.8573 198.012 89.8V93.244C198.012 93.5053 197.933 93.7107 197.774 93.86C197.625 94.0093 197.415 94.084 197.144 94.084C196.873 94.084 196.659 94.0093 196.5 93.86C196.341 93.7107 196.262 93.5053 196.262 93.244V89.898C196.262 89.366 196.159 88.9787 195.954 88.736C195.758 88.4933 195.445 88.372 195.016 88.372C194.512 88.372 194.106 88.5307 193.798 88.848C193.499 89.1653 193.35 89.59 193.35 90.122V93.244C193.35 93.5053 193.271 93.7107 193.112 93.86C192.953 94.0093 192.739 94.084 192.468 94.084C192.197 94.084 191.983 94.0093 191.824 93.86C191.675 93.7107 191.6 93.5053 191.6 93.244V87.826C191.6 87.5833 191.679 87.3873 191.838 87.238C191.997 87.0887 192.211 87.014 192.482 87.014C192.725 87.014 192.921 87.0887 193.07 87.238C193.229 87.378 193.308 87.5647 193.308 87.798V88.176C193.541 87.7933 193.854 87.4993 194.246 87.294C194.638 87.0887 195.081 86.986 195.576 86.986ZM203.317 86.986C204.269 86.986 204.974 87.224 205.431 87.7C205.898 88.1667 206.131 88.8807 206.131 89.842V93.258C206.131 93.51 206.057 93.7107 205.907 93.86C205.758 94 205.553 94.07 205.291 94.07C205.049 94.07 204.848 93.9953 204.689 93.846C204.54 93.6967 204.465 93.5007 204.465 93.258V92.95C204.307 93.314 204.055 93.5987 203.709 93.804C203.373 94.0093 202.981 94.112 202.533 94.112C202.076 94.112 201.661 94.0187 201.287 93.832C200.914 93.6453 200.62 93.3887 200.405 93.062C200.191 92.7353 200.083 92.3713 200.083 91.97C200.083 91.466 200.209 91.0693 200.461 90.78C200.723 90.4907 201.143 90.2807 201.721 90.15C202.3 90.0193 203.098 89.954 204.115 89.954H204.465V89.632C204.465 89.1747 204.367 88.8433 204.171 88.638C203.975 88.4233 203.658 88.316 203.219 88.316C202.949 88.316 202.673 88.358 202.393 88.442C202.113 88.5167 201.782 88.6287 201.399 88.778C201.157 88.8993 200.979 88.96 200.867 88.96C200.699 88.96 200.559 88.8993 200.447 88.778C200.345 88.6567 200.293 88.498 200.293 88.302C200.293 88.1433 200.331 88.008 200.405 87.896C200.489 87.7747 200.625 87.6627 200.811 87.56C201.138 87.3827 201.525 87.2427 201.973 87.14C202.431 87.0373 202.879 86.986 203.317 86.986ZM202.883 92.852C203.35 92.852 203.728 92.698 204.017 92.39C204.316 92.0727 204.465 91.6667 204.465 91.172V90.878H204.213C203.588 90.878 203.103 90.906 202.757 90.962C202.412 91.018 202.165 91.116 202.015 91.256C201.866 91.396 201.791 91.5873 201.791 91.83C201.791 92.1287 201.894 92.376 202.099 92.572C202.314 92.7587 202.575 92.852 202.883 92.852Z" fill="white"/>
</svg>
