<svg width="118" height="37" viewBox="0 0 118 37" fill="none" xmlns="http://www.w3.org/2000/svg">
<path d="M22.3511 5.48236C22.9696 5.48236 23.4616 5.69322 23.8271 6.11494C24.2207 6.50854 24.4175 7.02866 24.4175 7.6753V33.4424C24.4175 34.089 24.2207 34.6232 23.8271 35.0449C23.4335 35.4385 22.9275 35.6353 22.3089 35.6353C21.578 35.6353 21.0157 35.3541 20.6221 34.7919L4.09068 12.989V33.4424C4.09068 34.089 3.89387 34.6232 3.50027 35.0449C3.13478 35.4385 2.64277 35.6353 2.02425 35.6353C1.40573 35.6353 0.913725 35.4385 0.548235 35.0449C0.182745 34.6513 0 34.1171 0 33.4424V7.6753C0 7.02866 0.196802 6.50854 0.590407 6.11494C0.984011 5.69322 1.49007 5.48236 2.1086 5.48236C2.83958 5.48236 3.40187 5.7635 3.79547 6.32579L20.3269 28.1709V7.6753C20.3269 7.02866 20.5096 6.50854 20.8751 6.11494C21.2406 5.69322 21.7326 5.48236 22.3511 5.48236Z" fill="#44A38B"/>
<path d="M46.9443 30.2373C47.3379 30.2373 47.6612 30.3919 47.9142 30.7012C48.1673 31.0104 48.2938 31.404 48.2938 31.882C48.2938 32.6973 47.7877 33.3861 46.7756 33.9484C45.7916 34.5107 44.7092 34.9465 43.5283 35.2557C42.3756 35.565 41.2651 35.7196 40.1968 35.7196C36.9355 35.7196 34.363 34.7778 32.4793 32.8941C30.5956 30.9823 29.6538 28.3817 29.6538 25.0923C29.6538 22.9837 30.0614 21.1141 30.8768 19.4834C31.7202 17.8528 32.887 16.5876 34.377 15.688C35.8952 14.7883 37.6102 14.3385 39.522 14.3385C42.2772 14.3385 44.4561 15.2241 46.0587 16.9953C47.6612 18.7665 48.4625 21.1563 48.4625 24.1645C48.4625 25.2891 47.9564 25.8514 46.9443 25.8514H33.9131C34.1943 30.2092 36.2888 32.3881 40.1968 32.3881C41.237 32.3881 42.1367 32.2475 42.8958 31.9663C43.6549 31.6852 44.4561 31.3197 45.2996 30.8699C45.3839 30.8136 45.6088 30.7012 45.9743 30.5325C46.3679 30.3357 46.6912 30.2373 46.9443 30.2373ZM39.6064 17.4592C37.9757 17.4592 36.6684 17.9793 35.6844 19.0195C34.7004 20.0598 34.1099 21.5217 33.9131 23.4054H44.7935C44.7092 21.4936 44.2172 20.0317 43.3175 19.0195C42.4459 17.9793 41.2089 17.4592 39.6064 17.4592Z" fill="#44A38B"/>
<path d="M63.9521 14.4228C65.3016 14.3385 65.9763 14.9148 65.9763 16.1519C65.9763 16.7704 65.8217 17.2343 65.5124 17.5435C65.2032 17.8528 64.669 18.0355 63.9099 18.0918L62.6447 18.2183C60.8735 18.387 59.5521 19.0055 58.6806 20.0738C57.8371 21.1422 57.4154 22.4355 57.4154 23.9537V33.611C57.4154 34.2858 57.2186 34.7919 56.825 35.1292C56.4314 35.4666 55.9254 35.6353 55.3068 35.6353C54.6883 35.6353 54.1682 35.4666 53.7465 35.1292C53.3529 34.7919 53.1561 34.2858 53.1561 33.611V16.4471C53.1561 15.8004 53.3529 15.3084 53.7465 14.971C54.1682 14.6056 54.6883 14.4228 55.3068 14.4228C55.8691 14.4228 56.333 14.6056 56.6985 14.971C57.0921 15.3084 57.2889 15.7864 57.2889 16.4049V18.4291C57.8512 17.1921 58.6665 16.2503 59.7349 15.6036C60.8032 14.957 62.0122 14.5774 63.3617 14.465L63.9521 14.4228Z" fill="#44A38B"/>
<path d="M70.7506 35.6353C70.1321 35.6353 69.612 35.4666 69.1903 35.1292C68.7967 34.7919 68.5999 34.2858 68.5999 33.611V16.4892C68.5999 15.8145 68.7967 15.3084 69.1903 14.971C69.612 14.6056 70.1321 14.4228 70.7506 14.4228C71.3692 14.4228 71.8752 14.6056 72.2688 14.971C72.6624 15.3084 72.8592 15.8145 72.8592 16.4892V33.611C72.8592 34.2858 72.6624 34.7919 72.2688 35.1292C71.8752 35.4666 71.3692 35.6353 70.7506 35.6353ZM70.7506 10.29C69.9353 10.29 69.2887 10.065 68.8107 9.61521C68.3328 9.16537 68.0938 8.57497 68.0938 7.84398C68.0938 7.11301 68.3328 6.53666 68.8107 6.11494C69.2887 5.6651 69.9353 5.44019 70.7506 5.44019C71.5379 5.44019 72.1704 5.6651 72.6484 6.11494C73.1544 6.53666 73.4075 7.11301 73.4075 7.84398C73.4075 8.57497 73.1685 9.16537 72.6906 9.61521C72.2126 10.065 71.566 10.29 70.7506 10.29Z" fill="#44A38B"/>
<path d="M89.4691 32.3881C90.0876 32.4443 90.5234 32.613 90.7764 32.8941C91.0575 33.1472 91.1981 33.5126 91.1981 33.9906C91.1981 34.5529 90.9732 34.9887 90.5234 35.2979C90.1016 35.5791 89.4691 35.6915 88.6256 35.6353L87.487 35.5509C85.2097 35.3823 83.5088 34.6935 82.3842 33.4845C81.2596 32.2475 80.6973 30.4341 80.6973 28.0443V18.1339H78.167C76.9299 18.1339 76.3114 17.5857 76.3114 16.4892C76.3114 15.9832 76.466 15.5896 76.7753 15.3084C77.1127 14.9992 77.5766 14.8445 78.167 14.8445H80.6973V10.5008C80.6973 9.85418 80.88 9.34812 81.2455 8.98263C81.6391 8.61714 82.1592 8.43439 82.8059 8.43439C83.4525 8.43439 83.9726 8.61714 84.3662 8.98263C84.7599 9.34812 84.9567 9.85418 84.9567 10.5008V14.8445H89.1317C89.7221 14.8445 90.1719 14.9992 90.4812 15.3084C90.8186 15.5896 90.9872 15.9832 90.9872 16.4892C90.9872 17.0234 90.8186 17.4311 90.4812 17.7122C90.1719 17.9934 89.7221 18.1339 89.1317 18.1339H84.9567V28.3395C84.9567 29.6609 85.2237 30.6309 85.7579 31.2494C86.3202 31.8679 87.1637 32.2194 88.2882 32.3037L89.4691 32.3881Z" fill="#44A38B"/>
<path d="M104.373 12.0218C109.079 12.0038 113.333 14.8252 115.147 19.1685C116.96 23.5119 115.977 28.5203 112.655 31.8549C109.333 35.1896 104.328 36.1925 99.9781 34.3955C95.6278 32.5984 92.7901 28.3558 92.7901 23.649C92.7778 17.2399 97.9634 12.0342 104.373 12.0218Z" fill="#EFAB23"/>
<path d="M105.923 36.2397C112.311 36.2397 117.49 31.0339 117.49 24.6123C117.49 18.1906 112.311 12.9849 105.923 12.9849C99.5348 12.9849 94.356 18.1906 94.356 24.6123C94.356 31.0339 99.5348 36.2397 105.923 36.2397Z" fill="#EDDD64"/>
<path d="M78.2351 7.00874C80.165 7.00874 81.7295 5.43978 81.7295 3.50437C81.7295 1.56896 80.165 0 78.2351 0C76.3052 0 74.7407 1.56896 74.7407 3.50437C74.7407 5.43978 76.3052 7.00874 78.2351 7.00874Z" fill="#EDDD64"/>
<path d="M87.031 7.00874C88.9609 7.00874 90.5254 5.43978 90.5254 3.50437C90.5254 1.56896 88.9609 0 87.031 0C85.1011 0 83.5366 1.56896 83.5366 3.50437C83.5366 5.43978 85.1011 7.00874 87.031 7.00874Z" fill="#EDDD64"/>
<path d="M94.26 11.9484C96.1899 11.9484 97.7544 10.3795 97.7544 8.44406C97.7544 6.50866 96.1899 4.9397 94.26 4.9397C92.3301 4.9397 90.7656 6.50866 90.7656 8.44406C90.7656 10.3795 92.3301 11.9484 94.26 11.9484Z" fill="#EDDD64"/>
<path d="M70.7049 12.0697C72.7346 12.0697 74.38 10.4198 74.38 8.38457C74.38 6.34934 72.7346 4.69946 70.7049 4.69946C68.6752 4.69946 67.0298 6.34934 67.0298 8.38457C67.0298 10.4198 68.6752 12.0697 70.7049 12.0697Z" fill="#EDDD64"/>
</svg>
