<svg width="19" height="20" viewBox="0 0 19 20" fill="none" xmlns="http://www.w3.org/2000/svg">
<path d="M14.4997 6.39989C14.4997 4.96775 13.9308 3.59427 12.9181 2.58159C11.9055 1.56892 10.532 1 9.09984 1C7.6677 1 6.29422 1.56892 5.28154 2.58159C4.26886 3.59427 3.69995 4.96775 3.69995 6.39989C3.69995 12.6998 1 14.4997 1 14.4997H17.1997C17.1997 14.4997 14.4997 12.6998 14.4997 6.39989Z" stroke="white" stroke-width="2" stroke-linecap="round" stroke-linejoin="round"/>
<path d="M10.6569 18.0997C10.4987 18.3724 10.2716 18.5988 9.99832 18.7562C9.72507 18.9136 9.41527 18.9965 9.09994 18.9965C8.7846 18.9965 8.4748 18.9136 8.20155 18.7562C7.9283 18.5988 7.70119 18.3724 7.54297 18.0997" stroke="white" stroke-width="2" stroke-linecap="round" stroke-linejoin="round"/>
</svg>
