<svg width="30" height="40" viewBox="0 0 30 40" fill="none" xmlns="http://www.w3.org/2000/svg">
<path d="M15.0001 24.3846C14.3639 24.3846 13.8463 23.867 13.8463 23.2308C13.8463 22.766 14.1228 22.3486 14.5508 22.1673C15.0675 21.9485 15.6858 22.1352 16.2476 22.6795C16.7053 23.1229 17.4358 23.1114 17.8792 22.6538C18.3226 22.1961 18.311 21.4656 17.8534 21.0222C17.3325 20.5175 16.7534 20.1608 16.1539 19.9595V18.6154C16.1539 17.9782 15.6373 17.4615 15.0001 17.4615C14.3629 17.4615 13.8463 17.9782 13.8463 18.6154V19.967C13.7808 19.9903 13.7156 20.0149 13.6509 20.0423C12.3677 20.5858 11.5386 21.8373 11.5386 23.2308C11.5386 25.1395 13.0914 26.6923 15.0001 26.6923C15.6363 26.6923 16.1539 27.2099 16.1539 27.8462C16.1539 28.3297 15.8489 28.7657 15.395 28.931C14.8023 29.1468 14.1124 28.8541 13.5023 28.1275C13.0924 27.6395 12.3646 27.5762 11.8766 27.9861C11.3886 28.3959 11.3253 29.1238 11.7352 29.6117C12.3589 30.3544 13.085 30.8637 13.8463 31.12V32.4615C13.8463 33.0988 14.3629 33.6154 15.0002 33.6154C15.6374 33.6154 16.154 33.0988 16.154 32.4615V31.1098C16.1643 31.1062 16.1746 31.103 16.1849 31.0993C17.5466 30.6033 18.4616 29.2959 18.4616 27.8462C18.4616 25.9375 16.9088 24.3846 15.0001 24.3846Z" fill="white"/>
<path d="M25.6861 17.3276C24.3147 15.6405 22.747 14.2963 21.0261 13.3297C21.3079 12.9962 21.5303 12.6052 21.6739 12.1695C22.2375 10.4534 21.4143 8.41492 19.3133 7.75085L22.2586 2.61508C22.6302 1.96692 22.2964 1.14138 21.5798 0.933077C19.4503 0.313923 17.2366 0 15 0C12.7634 0 10.5497 0.313923 8.42015 0.933077C7.70277 1.14162 7.37023 1.96769 7.74138 2.61508L10.6867 7.75092C8.594 8.41162 7.76046 10.4471 8.32638 12.1704C8.46954 12.605 8.69185 12.9958 8.97454 13.3294C7.25339 14.296 5.68554 15.6403 4.314 17.3276C1.57238 20.7005 0 24.9548 0 29C0 37.3916 6.69592 39.3846 15 39.3846C23.3099 39.3846 30 37.3882 30 29C30 24.9548 28.4276 20.7005 25.6861 17.3276ZM10.4997 2.786C11.9718 2.46823 13.4798 2.30769 15 2.30769C16.5202 2.30769 18.0282 2.46823 19.5003 2.786L16.9593 7.21692C15.6578 7.03523 14.3425 7.03531 13.0408 7.217L10.4997 2.786ZM11.2535 9.992C13.2393 9.34062 15.3168 9.21715 17.3366 9.62092C17.339 9.62138 17.3415 9.62185 17.3438 9.62231C17.8146 9.71677 18.2822 9.83969 18.7448 9.99146C19.3495 10.1908 19.68 10.8448 19.4818 11.4485C19.3377 11.8856 18.9573 12.1867 18.5098 12.2355C17.3594 11.8752 16.1859 11.6923 15 11.6923C13.8165 11.6923 12.6453 11.8745 11.4971 12.2332C11.0427 12.1865 10.6614 11.8832 10.5185 11.4495C10.32 10.8448 10.6505 10.1907 11.2535 9.992ZM15 37.0923C5.98492 37.0923 2.30769 34.7369 2.30769 29C2.30769 25.5275 3.72715 21.7082 6.10462 18.7832C8.61192 15.6987 11.771 14 15 14C18.5543 14 21.6632 16.0371 23.8954 18.7832C26.2728 21.7082 27.6923 25.5275 27.6923 29C27.6923 34.7369 24.0151 37.0923 15 37.0923Z" fill="white"/>
</svg>
