<svg width="30" height="30" viewBox="0 0 30 30" fill="none" xmlns="http://www.w3.org/2000/svg">
<path d="M1 13.9297C1 10.9451 1 7.96119 1 4.97805C1 3.3414 1.71413 2.11609 3.18038 1.40413C3.70177 1.15875 4.2701 1.02916 4.84632 1.02428C9.89227 0.996058 14.9379 0.99244 19.9831 1.01342C22.272 1.02102 23.9 2.67177 23.9054 4.96177C23.9162 7.72821 23.9054 10.4968 23.9054 13.2622C23.9054 13.9622 23.4832 14.3866 22.9351 14.239C22.387 14.0914 22.3024 13.6562 22.3035 13.1732C22.3035 11.6907 22.3035 10.2074 22.3035 8.72344C22.3035 7.49379 22.3132 6.26413 22.3035 5.0334C22.2883 3.47273 21.4493 2.60774 19.8854 2.60231C14.9125 2.58784 9.9393 2.58784 4.96571 2.60231C3.5038 2.60231 2.59757 3.51505 2.5954 4.98022C2.58455 10.966 2.58455 16.9519 2.5954 22.9377C2.5954 24.5114 3.4962 25.3633 5.13284 25.3699C7.98937 25.3807 10.847 25.3699 13.7068 25.3699C13.9244 25.3668 14.142 25.3791 14.3579 25.4068C14.8051 25.4719 15.0243 25.7584 15.0091 26.1936C14.9939 26.6288 14.7226 26.8795 14.2961 26.9414C14.1158 26.9599 13.9345 26.9653 13.7534 26.9577C10.8962 26.9577 8.03821 26.9577 5.17951 26.9577C2.58238 26.9577 1 25.3699 1 22.7727V13.9297Z" fill="white" stroke="white"/>
<path d="M29.9929 22.3569C29.9942 23.3651 29.7958 24.3635 29.4091 25.2945C29.0224 26.2256 28.4552 27.0708 27.74 27.7814C27.0249 28.492 26.1761 29.0539 25.2426 29.4346C24.3091 29.8154 23.3094 30.0074 22.3013 29.9997C18.1283 29.9845 14.676 26.518 14.6944 22.3634C14.7139 18.1503 18.1674 14.6947 22.3491 14.7012C24.3768 14.7063 26.3199 15.515 27.7526 16.9499C29.1853 18.3849 29.9909 20.3292 29.9929 22.3569ZM22.3143 28.4086C25.6343 28.4737 28.3204 25.8147 28.4007 22.383C28.4756 19.2106 25.7895 16.3834 22.6388 16.3172C19.1756 16.2445 16.3723 18.8232 16.3072 22.141C16.2388 25.6204 18.8457 28.3402 22.3143 28.4086Z" fill="white"/>
<path d="M12.4563 12.4126C14.2091 12.4126 15.9629 12.4126 17.7157 12.4126C17.9111 12.4126 18.165 12.3974 18.2866 12.5059C18.5037 12.7024 18.7696 12.9813 18.7815 13.2374C18.7913 13.4621 18.5145 13.7399 18.3018 13.9201C18.1737 14.0286 17.9263 14.021 17.732 14.021C14.2069 14.0265 10.6775 14.0351 7.15677 14.0091C6.81002 13.9901 6.4814 13.8481 6.22992 13.6086C6.09209 13.4708 6.08992 12.99 6.22992 12.8348C6.45665 12.5931 6.76736 12.4475 7.09817 12.4278C8.8759 12.3974 10.6667 12.4126 12.4563 12.4126Z" fill="white"/>
<path d="M12.4479 8.9556C10.6408 8.9556 8.83272 8.9556 7.02135 8.9556C6.43745 8.9556 6.12597 8.719 6.09233 8.26969C6.05868 7.82037 6.25295 7.49695 6.72832 7.41989C6.94417 7.39169 7.16189 7.38044 7.3795 7.38625C10.7801 7.38625 14.1782 7.38625 17.5738 7.38625C17.7181 7.38625 17.8636 7.38625 18.0079 7.39602C18.5093 7.43943 18.8132 7.73355 18.8165 8.1655C18.8165 8.62458 18.4909 8.95017 17.9786 8.9556C16.8759 8.96645 15.7733 8.9556 14.6706 8.9556H12.4479Z" fill="white"/>
<path d="M10.1445 19.0447C9.1135 19.0447 8.08246 19.0501 7.0525 19.0447C6.42519 19.0447 6.08983 18.7625 6.08549 18.2676C6.08115 17.7727 6.40023 17.4797 7.03948 17.4775C9.11892 17.4681 11.1984 17.4681 13.2778 17.4775C13.9051 17.4775 14.2481 17.7727 14.2546 18.2578C14.2546 18.7614 13.9019 19.0436 13.2409 19.0458C12.2055 19.048 11.1756 19.0458 10.1445 19.0447Z" fill="white"/>
<path d="M23.1474 21.3978C23.1474 22.6011 23.1474 23.805 23.1474 25.0097C23.1474 25.1899 23.2038 25.4232 23.1148 25.5394C22.9227 25.7879 22.6807 26.0885 22.4072 26.1623C22.0338 26.2633 21.7137 26.0126 21.6138 25.6056C21.5671 25.3947 21.5452 25.179 21.5487 24.9631C21.5422 23.779 21.5487 22.5938 21.4185 21.3436C20.9691 21.8016 20.535 22.2737 20.0694 22.7154C19.9066 22.8738 19.6939 23.0811 19.4996 23.0844C19.2294 23.0898 18.8398 22.9997 18.7161 22.8109C18.6445 22.677 18.6048 22.5285 18.5999 22.3768C18.595 22.2251 18.6251 22.0743 18.6878 21.9361C18.9212 21.5433 19.2999 21.2329 19.6299 20.8997C20.3158 20.2051 21.0017 19.5116 21.7017 18.8311C22.1261 18.4187 22.5385 18.3883 22.9455 18.7822C23.957 19.759 24.949 20.7662 25.9355 21.7723C26.2741 22.1174 26.2861 22.519 25.9681 22.8923C25.6794 23.232 25.1953 23.2494 24.81 22.8836C24.2869 22.3876 23.8094 21.8428 23.3123 21.3197L23.1474 21.3978Z" fill="white"/>
</svg>
