<svg width="163" height="50" viewBox="0 0 163 50" fill="none" xmlns="http://www.w3.org/2000/svg">
<path d="M30.8379 7.56404C31.6912 7.56404 32.37 7.85497 32.8743 8.43681C33.4174 8.97987 33.6889 9.69748 33.6889 10.5896V46.1405C33.6889 47.0326 33.4174 47.7696 32.8743 48.3515C32.3313 48.8945 31.633 49.1661 30.7797 49.1661C29.7711 49.1661 28.9953 48.7782 28.4523 48.0024L5.64391 17.9209V46.1405C5.64391 47.0326 5.37238 47.7696 4.82932 48.3515C4.32506 48.8945 3.64624 49.1661 2.79286 49.1661C1.93949 49.1661 1.26067 48.8945 0.756401 48.3515C0.252134 47.8084 0 47.0714 0 46.1405V10.5896C0 9.69748 0.271528 8.97987 0.814584 8.43681C1.35764 7.85497 2.05586 7.56404 2.90923 7.56404C3.91777 7.56404 4.69356 7.95194 5.23662 8.72773L28.045 38.8674V10.5896C28.045 9.69748 28.2971 8.97987 28.8014 8.43681C29.3057 7.85497 29.9845 7.56404 30.8379 7.56404Z" fill="white"/>
<path d="M64.769 41.7184C65.3121 41.7184 65.7582 41.9318 66.1073 42.3585C66.4564 42.7851 66.631 43.3282 66.631 43.9876C66.631 45.1125 65.9327 46.0629 64.5363 46.8387C63.1787 47.6145 61.6852 48.2157 60.0561 48.6424C58.4657 49.0691 56.9335 49.2824 55.4595 49.2824C50.9599 49.2824 47.4106 47.983 44.8117 45.3841C42.2128 42.7464 40.9133 39.1583 40.9133 34.6199C40.9133 31.7107 41.4758 29.1311 42.6007 26.8813C43.7644 24.6315 45.3742 22.886 47.43 21.6447C49.5247 20.4035 51.8908 19.7828 54.5285 19.7828C58.3299 19.7828 61.3361 21.0047 63.5472 23.4485C65.7582 25.8922 66.8637 29.1893 66.8637 33.3398C66.8637 34.8914 66.1655 35.6672 64.769 35.6672H46.79C47.1779 41.6796 50.0677 44.6858 55.4595 44.6858C56.8947 44.6858 58.136 44.4919 59.1833 44.104C60.2306 43.7161 61.3361 43.2118 62.4998 42.5912C62.6162 42.5136 62.9265 42.3585 63.4308 42.1257C63.9738 41.8542 64.4199 41.7184 64.769 41.7184ZM54.6449 24.0885C52.3951 24.0885 50.5914 24.8061 49.2337 26.2413C47.8761 27.6765 47.0615 29.6936 46.79 32.2925H61.8016C61.6852 29.6548 61.0064 27.6377 59.7652 26.2413C58.5627 24.8061 56.8559 24.0885 54.6449 24.0885Z" fill="white"/>
<path d="M88.2347 19.8992C90.0966 19.7828 91.0276 20.578 91.0276 22.2848C91.0276 23.1381 90.8142 23.7782 90.3875 24.2048C89.9609 24.6315 89.2239 24.8837 88.1765 24.9613L86.431 25.1358C83.9872 25.3685 82.1641 26.2219 80.9616 27.6959C79.7979 29.1699 79.2161 30.9543 79.2161 33.0489V46.3732C79.2161 47.3042 78.9446 48.0024 78.4015 48.4678C77.8585 48.9333 77.1602 49.1661 76.3069 49.1661C75.4535 49.1661 74.7359 48.9333 74.154 48.4678C73.611 48.0024 73.3394 47.3042 73.3394 46.3732V22.692C73.3394 21.7999 73.611 21.1211 74.154 20.6556C74.7359 20.1513 75.4535 19.8992 76.3069 19.8992C77.0827 19.8992 77.7227 20.1513 78.227 20.6556C78.77 21.1211 79.0415 21.7805 79.0415 22.6339V25.4267C79.8173 23.72 80.9422 22.4205 82.4162 21.5284C83.8903 20.6362 85.5582 20.1125 87.4201 19.9574L88.2347 19.8992Z" fill="white"/>
<path d="M97.6147 49.1661C96.7613 49.1661 96.0437 48.9333 95.4619 48.4678C94.9188 48.0024 94.6473 47.3042 94.6473 46.3732V22.7502C94.6473 21.8193 94.9188 21.1211 95.4619 20.6556C96.0437 20.1513 96.7613 19.8992 97.6147 19.8992C98.4681 19.8992 99.1663 20.1513 99.7094 20.6556C100.252 21.1211 100.524 21.8193 100.524 22.7502V46.3732C100.524 47.3042 100.252 48.0024 99.7094 48.4678C99.1663 48.9333 98.4681 49.1661 97.6147 49.1661ZM97.6147 14.1971C96.4898 14.1971 95.5976 13.8868 94.9382 13.2661C94.2788 12.6455 93.9491 11.8309 93.9491 10.8224C93.9491 9.81385 94.2788 9.01866 94.9382 8.43681C95.5976 7.81618 96.4898 7.50586 97.6147 7.50586C98.7008 7.50586 99.5736 7.81618 100.233 8.43681C100.931 9.01866 101.28 9.81385 101.28 10.8224C101.28 11.8309 100.951 12.6455 100.291 13.2661C99.6318 13.8868 98.7396 14.1971 97.6147 14.1971Z" fill="white"/>
<path d="M123.441 44.6858C124.294 44.7634 124.895 44.9962 125.244 45.3841C125.632 45.7332 125.826 46.2374 125.826 46.8969C125.826 47.6727 125.516 48.2739 124.895 48.7006C124.313 49.0885 123.441 49.2436 122.277 49.1661L120.706 49.0497C117.564 48.8169 115.217 47.8666 113.665 46.1986C112.114 44.4919 111.338 41.99 111.338 38.6928V25.0194H107.847C106.14 25.0194 105.287 24.263 105.287 22.7502C105.287 22.052 105.5 21.509 105.927 21.1211C106.392 20.6944 107.032 20.481 107.847 20.481H111.338V14.488C111.338 13.5959 111.59 12.8976 112.095 12.3934C112.638 11.8891 113.355 11.637 114.247 11.637C115.139 11.637 115.857 11.8891 116.4 12.3934C116.943 12.8976 117.215 13.5959 117.215 14.488V20.481H122.975C123.79 20.481 124.41 20.6944 124.837 21.1211C125.302 21.509 125.535 22.052 125.535 22.7502C125.535 23.4872 125.302 24.0497 124.837 24.4376C124.41 24.8255 123.79 25.0194 122.975 25.0194H117.215V39.1001C117.215 40.9232 117.583 42.2615 118.32 43.1149C119.096 43.9682 120.26 44.4531 121.811 44.5695L123.441 44.6858Z" fill="white"/>
<path d="M144.001 16.5861C150.495 16.5612 156.364 20.4539 158.866 26.4464C161.369 32.4389 160.012 39.349 155.428 43.9498C150.845 48.5506 143.94 49.9344 137.938 47.455C131.936 44.9756 128.021 39.1221 128.021 32.6281C128.004 23.7854 135.159 16.6032 144.001 16.5861Z" fill="#EFAB23"/>
<path d="M146.141 49.9997C154.955 49.9997 162.1 42.8173 162.1 33.9574C162.1 25.0974 154.955 17.915 146.141 17.915C137.327 17.915 130.182 25.0974 130.182 33.9574C130.182 42.8173 137.327 49.9997 146.141 49.9997Z" fill="#EDDD64"/>
<path d="M107.94 9.66995C110.603 9.66995 112.761 7.50526 112.761 4.83498C112.761 2.16469 110.603 0 107.94 0C105.278 0 103.119 2.16469 103.119 4.83498C103.119 7.50526 105.278 9.66995 107.94 9.66995Z" fill="#EDDD64"/>
<path d="M120.077 9.66995C122.739 9.66995 124.898 7.50526 124.898 4.83498C124.898 2.16469 122.739 0 120.077 0C117.414 0 115.255 2.16469 115.255 4.83498C115.255 7.50526 117.414 9.66995 120.077 9.66995Z" fill="#EDDD64"/>
<path d="M130.052 16.4854C132.714 16.4854 134.873 14.3207 134.873 11.6504C134.873 8.98012 132.714 6.81543 130.052 6.81543C127.389 6.81543 125.23 8.98012 125.23 11.6504C125.23 14.3207 127.389 16.4854 130.052 16.4854Z" fill="#EDDD64"/>
<path d="M97.551 16.6521C100.351 16.6521 102.622 14.3757 102.622 11.5677C102.622 8.75973 100.351 6.4834 97.551 6.4834C94.7506 6.4834 92.4805 8.75973 92.4805 11.5677C92.4805 14.3757 94.7506 16.6521 97.551 16.6521Z" fill="#EDDD64"/>
</svg>
